<svg width="479" height="91" viewBox="0 0 479 91" fill="none" xmlns="http://www.w3.org/2000/svg">
<rect x="92" width="387" height="90" fill="#000F1F"/>
<path d="M124.912 23.2C127.045 23.2427 128.965 23.6267 130.672 24.352C132.421 25.0347 133.915 26.016 135.152 27.296C136.389 28.576 137.328 30.0907 137.968 31.84C138.651 33.5893 138.992 35.552 138.992 37.728C138.992 39.8613 138.629 41.824 137.904 43.616C137.179 45.408 136.155 46.944 134.832 48.224C133.552 49.504 132.016 50.5067 130.224 51.232C128.432 51.9573 126.448 52.32 124.272 52.32H115.376V68H105.52V23.2H124.912ZM123.76 43.616C125.296 43.616 126.512 43.0187 127.408 41.824C128.304 40.5867 128.752 39.2 128.752 37.664C128.752 36.1707 128.283 34.8907 127.344 33.824C126.405 32.7573 125.189 32.224 123.696 32.224H115.376V43.616H123.76ZM179.037 37.728C179.037 40.6293 178.397 43.1893 177.117 45.408C175.837 47.584 174.088 49.2693 171.869 50.464L179.869 68H168.989L161.885 52.32H155.421V68H145.565V23.2H164.957C167.09 23.2427 169.01 23.6267 170.717 24.352C172.466 25.0347 173.96 26.016 175.197 27.296C176.434 28.576 177.373 30.0907 178.013 31.84C178.696 33.5893 179.037 35.552 179.037 37.728ZM155.421 44H163.805C164.573 44 165.256 43.8293 165.853 43.488C166.45 43.104 166.962 42.6133 167.389 42.016C167.858 41.376 168.2 40.6933 168.413 39.968C168.669 39.2 168.797 38.432 168.797 37.664C168.797 36.1707 168.328 34.8907 167.389 33.824C166.45 32.7573 165.234 32.224 163.741 32.224H155.421V44ZM217.581 23.2V32.224H196.653V43.36L212.397 38.56V47.968L196.653 52.704V58.976H217.581V68H186.797V23.2H217.581ZM244.297 23.2C246.43 23.2427 248.35 23.6267 250.057 24.352C251.806 25.0347 253.3 26.016 254.537 27.296C255.774 28.576 256.713 30.0907 257.353 31.84C258.036 33.5893 258.377 35.552 258.377 37.728C258.377 39.8613 258.014 41.824 257.289 43.616C256.564 45.408 255.54 46.944 254.217 48.224C252.937 49.504 251.401 50.5067 249.609 51.232C247.817 51.9573 245.833 52.32 243.657 52.32H234.761V68H224.905V23.2H244.297ZM243.145 43.616C244.681 43.616 245.897 43.0187 246.793 41.824C247.689 40.5867 248.137 39.2 248.137 37.664C248.137 36.1707 247.668 34.8907 246.729 33.824C245.79 32.7573 244.574 32.224 243.081 32.224H234.761V43.616H243.145ZM285.302 31.968C283.382 31.968 281.654 32.3307 280.118 33.056C278.625 33.7387 277.366 34.6987 276.342 35.936C275.318 37.1307 274.529 38.56 273.974 40.224C273.462 41.888 273.206 43.68 273.206 45.6C273.206 47.52 273.462 49.312 273.974 50.976C274.529 52.64 275.318 54.0907 276.342 55.328C277.366 56.5227 278.625 57.4827 280.118 58.208C281.654 58.8907 283.382 59.232 285.302 59.232C286.923 59.232 288.374 59.0187 289.654 58.592C290.977 58.1653 292.107 57.5893 293.046 56.864C293.985 56.1387 294.731 55.2853 295.286 54.304C295.841 53.3227 296.182 52.2773 296.31 51.168H306.614C306.529 53.6427 305.974 55.9467 304.95 58.08C303.969 60.2133 302.561 62.0693 300.726 63.648C298.891 65.2267 296.673 66.464 294.07 67.36C291.51 68.256 288.63 68.704 285.43 68.704C282.102 68.704 279.051 68.128 276.278 66.976C273.547 65.824 271.201 64.224 269.238 62.176C267.318 60.0853 265.803 57.632 264.694 54.816C263.627 52 263.094 48.928 263.094 45.6C263.094 42.272 263.627 39.2 264.694 36.384C265.803 33.568 267.318 31.136 269.238 29.088C271.201 26.9973 273.547 25.376 276.278 24.224C279.051 23.072 282.102 22.496 285.43 22.496C288.63 22.496 291.51 22.944 294.07 23.84C296.673 24.736 298.891 25.9733 300.726 27.552C302.561 29.1307 303.969 30.9867 304.95 33.12C305.974 35.2533 306.529 37.5573 306.614 40.032H296.31C296.182 38.88 295.841 37.8133 295.286 36.832C294.731 35.8507 293.985 34.9973 293.046 34.272C292.107 33.5467 290.977 32.992 289.654 32.608C288.374 32.1813 286.923 31.968 285.302 31.968ZM347.28 37.728C347.28 40.6293 346.64 43.1893 345.36 45.408C344.08 47.584 342.33 49.2693 340.112 50.464L348.112 68H337.232L330.128 52.32H323.664V68H313.808V23.2H333.2C335.333 23.2427 337.253 23.6267 338.96 24.352C340.709 25.0347 342.202 26.016 343.44 27.296C344.677 28.576 345.616 30.0907 346.256 31.84C346.938 33.5893 347.28 35.552 347.28 37.728ZM323.664 44H332.048C332.816 44 333.498 43.8293 334.096 43.488C334.693 43.104 335.205 42.6133 335.632 42.016C336.101 41.376 336.442 40.6933 336.656 39.968C336.912 39.2 337.04 38.432 337.04 37.664C337.04 36.1707 336.57 34.8907 335.632 33.824C334.693 32.7573 333.477 32.224 331.984 32.224H323.664V44ZM378.848 23.2L394.272 68H383.776L372.96 62.432L362.144 68H351.648L367.072 23.2H378.848ZM372.96 35.936L366.432 55.328L372.96 52.384L379.488 55.328L372.96 35.936ZM430.744 23.2V32.224H409.816V45.088L425.56 40.288V49.696L409.816 54.432V68H399.96V23.2H430.744ZM456.513 23.264H468.865V32.288H456.513V68H446.657V32.288H434.305V23.264H446.657V23.2H456.513V23.264Z" fill="#E3EAF2"/>
<rect width="90.5" height="90.5" fill="#000F1F"/>
<path d="M70.344 68H28.68L49.032 22.688H49.992L70.344 68ZM49.736 59.616L59.848 66.144L49.544 42.72L39.24 66.144L49.288 59.616H49.736Z" fill="#E3EAF2"/>
</svg>
