<?xml version="1.0" encoding="UTF-8"?>
<svg version="1.1" xmlns="http://www.w3.org/2000/svg" width="2000" height="2000">
<path d="M0 0 C660 0 1320 0 2000 0 C2000 660 2000 1320 2000 2000 C1340 2000 680 2000 0 2000 C0 1340 0 680 0 0 Z " fill="#080F1F" transform="translate(0,0)"/>
<path d="M0 0 C10.951875 -0.0825 21.90375 -0.165 33.1875 -0.25 C38.33508911 -0.30462402 38.33508911 -0.30462402 43.58666992 -0.36035156 C47.84436035 -0.37841797 47.84436035 -0.37841797 49.85054016 -0.3817749 C51.2233553 -0.38783474 52.59615197 -0.40172715 53.96882629 -0.42230225 C66.86974618 -0.60565902 79.29051958 0.73963652 89 10 C98.16435207 18.91921508 101.25132209 28.35268544 101.5 40.875 C101.6069206 52.72180255 98.66667634 61.16050835 90.625 70.125 C86.90867719 73.46884398 82.62744897 75.24746139 78 77 C83.06409627 85.96255691 88.56335211 94.53146874 94.3125 103.0625 C95.13118921 104.28298194 95.94955009 105.50368418 96.76757812 106.72460938 C98.25361107 108.94155105 99.74185985 111.15693978 101.23168945 113.37133789 C102.49195224 115.24476733 103.74755621 117.12133432 105 119 C100.5712664 119.24865482 96.14629534 119.42926743 91.71264648 119.54931641 C90.20769468 119.59937919 88.70322393 119.66746223 87.19995117 119.75439453 C74.79151879 120.453577 74.79151879 120.453577 70.64575195 117.08984375 C68.8073666 114.48352527 67.40661833 111.86032834 66 109 C64.89243782 107.27258564 63.76351711 105.55867245 62.61328125 103.859375 C61.5111854 102.15743714 60.41092114 100.45431181 59.3125 98.75 C56.86805931 94.96811084 56.86805931 94.96811084 54.39404297 91.20556641 C53 89 53 89 51.27734375 85.4453125 C48.60620061 82.57715538 47.79659141 82.5495333 44.015625 82.1953125 C42.09449469 82.1369072 40.17201291 82.12061718 38.25 82.125 C34.8675 82.08375 31.485 82.0425 28 82 C28 94.21 28 106.42 28 119 C18.76 119 9.52 119 0 119 C0 79.73 0 40.46 0 0 Z " fill="#28C4B1" transform="translate(1165,943)"/>
<path d="M0 0 C10.9725 -0.0825 21.945 -0.165 33.25 -0.25 C36.69083008 -0.28641602 40.13166016 -0.32283203 43.67675781 -0.36035156 C47.93896484 -0.37841797 47.93896484 -0.37841797 49.94598389 -0.3817749 C51.32217614 -0.38784295 52.69834965 -0.40175352 54.07440186 -0.42230225 C68.63514394 -0.62851684 80.86042696 2.15235436 91.58984375 12.5390625 C98.82314445 20.76172043 101.35305547 29.62260782 101.1875 40.375 C101.1865332 41.60283203 101.1865332 41.60283203 101.18554688 42.85546875 C101.14074248 48.85925752 101.14074248 48.85925752 100 50 C99.73078423 51.58017952 99.48456993 53.16430728 99.25 54.75 C98.3200592 59.6287193 96.87351184 61.77207347 93 65 C92.443125 65.78375 91.88625 66.5675 91.3125 67.375 C87.81400666 71.34626271 83.51986359 74.2676086 79 77 C78.34 77 77.68 77 77 77 C80.46799986 83.28629848 84.36844028 89.25377838 88.3125 95.25 C92.22386416 101.20979807 96.12898471 107.17313771 99.98046875 113.171875 C100.56078857 114.07518555 101.1411084 114.97849609 101.73901367 115.90917969 C103 118 103 118 103 119 C78.05938888 123.17421062 78.05938888 123.17421062 70.35894775 117.86950684 C63.72903796 111.78314747 59.63763498 103.21598614 55.68310547 95.26611328 C53.74688116 91.50881581 51.5053815 88.10351533 49.05102539 84.66967773 C48 83 48 83 48 81 C41.07 81 34.14 81 27 81 C27 93.54 27 106.08 27 119 C18.09 119 9.18 119 0 119 C0 79.73 0 40.46 0 0 Z " fill="#FBFBF9" transform="translate(698,943)"/>
<path d="M0 0 C0.8765625 0.44988281 1.753125 0.89976562 2.65625 1.36328125 C4.30193009 2.2492057 5.91509932 3.19693708 7.5 4.1875 C10.68656605 6.01977548 14.01549955 7.25295072 17.4375 8.58203125 C20.42133057 9.79648668 23.26262359 11.19887182 26.11328125 12.6953125 C28.04178331 13.67853223 28.04178331 13.67853223 30.29296875 14.5234375 C33.6230877 15.87855084 36.79963294 17.49393892 40 19.125 C47.68882445 23.01388545 55.45763461 26.72268799 63.25585938 30.38671875 C64.11888672 30.7940625 64.98191406 31.20140625 65.87109375 31.62109375 C66.64380615 31.98388428 67.41651855 32.3466748 68.21264648 32.72045898 C70 33.625 70 33.625 71 34.625 C71.4375 36.9375 71.4375 36.9375 71 39.625 C65.50661144 44.07339841 58.81186431 46.52589876 52.375 49.3125 C51.24320313 49.81072266 50.11140625 50.30894531 48.9453125 50.82226562 C40.55136409 54.48715898 40.55136409 54.48715898 36 55.625 C36 63.545 36 71.465 36 79.625 C32.7825 79.7178125 32.7825 79.7178125 29.5 79.8125 C18.85732443 80.37773357 8.80829067 83.41705597 -0.5625 88.5 C-3.54758533 90.05937293 -4.93441761 90.62135653 -8.375 90.8125 C-11.71579059 89.71810308 -14.46292038 88.38372823 -17.5625 86.75 C-28.4514983 81.0953147 -39.94193589 80.24020735 -52 79.625 C-52 71.705 -52 63.785 -52 55.625 C-54.97 55.13 -54.97 55.13 -58 54.625 C-60.5546875 53.43359375 -60.5546875 53.43359375 -62.875 52.0625 C-64.04675781 51.37994141 -64.04675781 51.37994141 -65.2421875 50.68359375 C-66.11230469 50.15958984 -66.11230469 50.15958984 -67 49.625 C-66.93963048 52.33559145 -66.8524809 55.04093977 -66.75 57.75 C-66.73582031 58.51054688 -66.72164063 59.27109375 -66.70703125 60.0546875 C-66.47562361 65.42334481 -65.2138336 68.18990964 -62 72.625 C-62 73.945 -62 75.265 -62 76.625 C-63.485 77.615 -63.485 77.615 -65 78.625 C-65.50621513 80.64776681 -65.50621513 80.64776681 -65.51171875 82.9765625 C-65.54716797 83.82734375 -65.58261719 84.678125 -65.61914062 85.5546875 C-65.64169922 86.44414063 -65.66425781 87.33359375 -65.6875 88.25 C-65.72166016 89.1471875 -65.75582031 90.044375 -65.79101562 90.96875 C-65.87361213 93.18705613 -65.93847923 95.40600936 -66 97.625 C-70.29 97.625 -74.58 97.625 -79 97.625 C-79.03738281 96.20445313 -79.07476562 94.78390625 -79.11328125 93.3203125 C-79.17892562 91.46351458 -79.24537348 89.60674493 -79.3125 87.75 C-79.33505859 86.81285156 -79.35761719 85.87570312 -79.38085938 84.91015625 C-79.4340332 83.56630859 -79.4340332 83.56630859 -79.48828125 82.1953125 C-79.51446533 81.36789551 -79.54064941 80.54047852 -79.56762695 79.68798828 C-79.83096637 77.23172068 -79.83096637 77.23172068 -83 75.625 C-83.5 73.25 -83.5 73.25 -83 70.625 C-82.18144531 70.14289063 -81.36289062 69.66078125 -80.51953125 69.1640625 C-76.55036464 65.16412716 -77.21847483 60.79903701 -77.1875 55.375 C-77.16236328 54.34375 -77.13722656 53.3125 -77.11132812 52.25 C-77.05248438 49.70795011 -77.01618493 47.16762084 -77 44.625 C-78.13501953 44.44130859 -78.13501953 44.44130859 -79.29296875 44.25390625 C-82.78023067 43.44373429 -85.11900935 41.70199326 -88 39.625 C-87.67021073 36.75389344 -87.45873558 35.08818933 -85.390625 33 C-80.06018536 29.57606797 -74.76632655 27.33037343 -68.8203125 25.1796875 C-60.0006745 21.77069535 -51.35890563 16.9517584 -43.33203125 11.96875 C-40.54284264 10.36157934 -37.71790691 9.33151049 -34.6875 8.25 C-30.03304374 6.5085012 -26.08378165 4.57829178 -21.96875 1.83203125 C-13.93014311 -3.09640036 -8.49355397 -4.37948877 0 0 Z " fill="#43D8A8" transform="translate(474,952.375)"/>
<path d="M0 0 C16.95375 -0.1546875 16.95375 -0.1546875 34.25 -0.3125 C37.79524414 -0.35802002 41.34048828 -0.40354004 44.99316406 -0.45043945 C49.38232422 -0.47302246 49.38232422 -0.47302246 51.44866943 -0.47721863 C52.86655567 -0.48480734 54.28441331 -0.50220391 55.7020874 -0.52787781 C69.66403715 -0.7676926 80.51827749 2.33783604 91 12 C99.08219774 19.95785624 102.00789483 29.93476413 102.4375 41 C102.35978827 49.57419378 99.93929158 57.01142538 97 65 C96.34 65 95.68 65 95 65 C94.72929688 65.60199219 94.45859375 66.20398438 94.1796875 66.82421875 C89.86818262 74.77623271 78.67729322 80.59955985 70.38452148 83.08251953 C65.79132746 84.1830737 61.39115168 84.25512347 56.6875 84.1953125 C55.40601074 84.19106766 55.40601074 84.19106766 54.09863281 84.18673706 C51.39893947 84.17563879 48.69959123 84.15055427 46 84.125 C44.15755691 84.11495679 42.31510857 84.1058333 40.47265625 84.09765625 C35.9815344 84.07744418 31.49114856 84.03827683 27 84 C27 95.55 27 107.1 27 119 C18.09 119 9.18 119 0 119 C0 79.73 0 40.46 0 0 Z " fill="#F9FAF7" transform="translate(922,943)"/>
<path d="M0 0 C16.4278125 -0.1546875 16.4278125 -0.1546875 33.1875 -0.3125 C36.61922607 -0.35802002 40.05095215 -0.40354004 43.58666992 -0.45043945 C47.84436035 -0.47302246 47.84436035 -0.47302246 49.85054016 -0.47721863 C51.22338516 -0.48479359 52.5962013 -0.50215986 53.96882629 -0.52787781 C67.38958072 -0.76630908 78.49691389 1.87933052 88.84375 10.83203125 C98.58240242 20.62361113 101.27907092 32.56331652 101.24438477 45.98535156 C101.15046074 51.37523994 100.59448273 55.31526264 98 60 C97.25169922 61.46759766 97.25169922 61.46759766 96.48828125 62.96484375 C91.51627602 72.18260625 86.73697164 76.38085485 77 80 C76.24001709 80.33217529 75.48003418 80.66435059 74.69702148 81.0065918 C64.95584568 84.85709905 55.53751497 84.45405625 45.25 84.25 C43.47397862 84.22989165 41.69793509 84.21164859 39.921875 84.1953125 C35.6135753 84.15512314 31.3084156 84.07678364 27 84 C27 95.55 27 107.1 27 119 C18.09 119 9.18 119 0 119 C0 79.73 0 40.46 0 0 Z " fill="#FBFBF9" transform="translate(582,943)"/>
<path d="M0 0 C9.57 0 19.14 0 29 0 C37.3186594 18.48590978 45.25867563 37.08377573 53.01487732 55.8097229 C56.47134939 64.14905354 59.96419885 72.47299992 63.46618652 80.79330444 C64.14191401 82.39906482 64.81714668 84.00503354 65.49182129 85.61123657 C66.44127261 87.87153649 67.39204198 90.13127439 68.34375 92.390625 C68.64512878 93.10631149 68.94650757 93.82199799 69.25701904 94.55937195 C70.817116 98.24994448 72.40217989 101.92764587 74.0234375 105.59179688 C74.34977173 106.32992615 74.67610596 107.06805542 75.0123291 107.82855225 C75.63568945 109.23363908 76.26240108 110.63724539 76.89294434 112.03912354 C79 116.78191373 79 116.78191373 79 119 C69.43 119 59.86 119 50 119 C47.36 112.4 44.72 105.8 42 99 C23.85 99 5.7 99 -13 99 C-17.11900016 108.81598939 -17.11900016 108.81598939 -20 119 C-29.57 119 -39.14 119 -49 119 C-45.62739761 107.75799202 -45.62739761 107.75799202 -43.5390625 102.98828125 C-43.07483887 101.91827881 -42.61061523 100.84827637 -42.13232422 99.74584961 C-41.63490723 98.61284424 -41.13749023 97.47983887 -40.625 96.3125 C-39.5337714 93.80064145 -38.44681829 91.28693666 -37.359375 88.7734375 C-37.08008148 88.12932419 -36.80078796 87.48521088 -36.51303101 86.82157898 C-33.57958493 80.04960429 -30.72195717 73.24622306 -27.875 66.4375 C-27.35060969 65.18464175 -26.82619527 63.93179359 -26.30175781 62.67895508 C-25.17453237 59.9852757 -24.04799985 57.29130764 -22.921875 54.59716797 C-19.48146746 46.36660923 -16.03657374 38.13792677 -12.59234619 29.90896606 C-11.39567559 27.04940632 -10.19950037 24.18963979 -9.00341797 21.32983398 C-8.26009906 19.55321934 -7.51677259 17.77660787 -6.7734375 16 C-6.26798401 14.79096764 -6.26798401 14.79096764 -5.75231934 13.55751038 C-5.27429871 12.41529274 -5.27429871 12.41529274 -4.78662109 11.25 C-4.51272552 10.59515625 -4.23882996 9.9403125 -3.95663452 9.265625 C-2.65028621 6.17176279 -1.32291973 3.0868127 0 0 Z " fill="#25DAD2" transform="translate(1323,943)"/>
<path d="M0 0 C29.04 0 58.08 0 88 0 C88 7.92 88 15.84 88 24 C68.2 24 48.4 24 28 24 C28 31.59 28 39.18 28 47 C46.48 47 64.96 47 84 47 C84 54.92 84 62.84 84 71 C65.52 71 47.04 71 28 71 C28 78.92 28 86.84 28 95 C47.8 95 67.6 95 88 95 C88 102.92 88 110.84 88 119 C58.96 119 29.92 119 0 119 C0 79.73 0 40.46 0 0 Z " fill="#F8F8F6" transform="translate(816,943)"/>
<path d="M0 0 C1.2684375 0.40025391 1.2684375 0.40025391 2.5625 0.80859375 C13.49244038 4.65115092 22.94654338 12.078158 29 22 C29.7109375 24.80078125 29.7109375 24.80078125 30 27 C24.66666667 29.66666667 19.33333333 32.33333333 14 35 C13.32163086 35.37012207 12.64326172 35.74024414 11.94433594 36.12158203 C10 37 10 37 7 37 C6.67 36.01 6.34 35.02 6 34 C-3.1270448 26.17173545 -13.05967283 22.57783878 -25.03125 22.72265625 C-34.1268274 23.57237467 -43.88391211 28.06429724 -49.78515625 35.140625 C-55.09144217 42.80670883 -57.5082749 49.10499038 -57.375 58.375 C-57.38660156 59.17421875 -57.39820313 59.9734375 -57.41015625 60.796875 C-57.35753289 71.63728713 -53.51523076 79.26811394 -46 87 C-38.15652023 93.58600806 -28.42896898 95.69057156 -18.37109375 95.40625 C-8.08477378 94.16664713 0.07171386 89.6177515 7 82 C7.33 81.34 7.66 80.68 8 80 C11.24591637 80.64982987 13.6997592 81.83026386 16.546875 83.50390625 C17.39121094 83.99697266 18.23554687 84.49003906 19.10546875 84.99804688 C20.41451172 85.77245117 20.41451172 85.77245117 21.75 86.5625 C22.63816406 87.08263672 23.52632812 87.60277344 24.44140625 88.13867188 C26.6302426 89.42137705 28.81627981 90.70861056 31 92 C29.25238136 100.34265465 19.81219318 108.18342218 13 113 C9.42885707 114.94741375 5.80101858 116.55670036 2 118 C1.04782593 118.39276123 1.04782593 118.39276123 0.07641602 118.79345703 C-6.35992856 121.24532861 -12.34856902 121.46631026 -19.1875 121.375 C-20.29593262 121.36339844 -21.40436523 121.35179687 -22.54638672 121.33984375 C-40.57275592 120.98063698 -55.72432247 116.01651551 -68.85546875 103.27734375 C-82.63437433 88.64509976 -86.95976672 72.19880529 -86.41015625 52.4296875 C-85.49520217 35.97198683 -76.84300163 22.68743047 -65.1171875 11.66796875 C-60.85741736 7.87959909 -56.19837333 5.29677761 -51 3 C-50.15566406 2.61328125 -49.31132813 2.2265625 -48.44140625 1.828125 C-33.40055104 -4.64812467 -15.5052102 -5.32991601 0 0 Z " fill="#27C2AC" transform="translate(1120,943)"/>
<path d="M0 0 C28.38 0 56.76 0 86 0 C86 7.92 86 15.84 86 24 C66.2 24 46.4 24 26 24 C26 32.91 26 41.82 26 51 C45.14 51 64.28 51 84 51 C84 58.92 84 66.84 84 75 C64.86 75 45.72 75 26 75 C26 89.52 26 104.04 26 119 C17.42 119 8.84 119 0 119 C0 79.73 0 40.46 0 0 Z " fill="#2AE4EB" transform="translate(1414,943)"/>
<path d="M0 0 C2.87993499 0.05278903 5.75450728 0.04108464 8.63476562 0.02148438 C21.65495761 0.0565798 31.72580155 1.63504579 41.53320312 10.91992188 C48.55230491 18.60902883 50.75986577 26.668984 50.49023438 36.94335938 C49.66974285 46.78925763 46.38962332 53.89531161 39.25195312 60.80273438 C28.89393534 68.81203361 17.84087379 70.34390414 5.11254883 70.30371094 C2.95257314 70.30274027 0.79618292 70.34444573 -1.36328125 70.38867188 C-13.12826177 70.48988813 -24.17979222 68.32262476 -32.96289062 59.83789062 C-42.32686446 49.16255065 -43.59031048 40.96212266 -42.97460938 27.16015625 C-42.50354583 22.25865884 -40.64417155 18.69004611 -37.74804688 14.80273438 C-37.3484375 14.17625 -36.94882813 13.54976562 -36.53710938 12.90429688 C-27.59343322 0.49155846 -13.90292431 -0.2755877 0 0 Z " fill="#83838C" transform="translate(1886.748046875,1868.197265625)"/>
<path d="M0 0 C33 0 66 0 100 0 C100 7.92 100 15.84 100 24 C88.12 24 76.24 24 64 24 C64 55.35 64 86.7 64 119 C55.09 119 46.18 119 37 119 C37 87.65 37 56.3 37 24 C24.79 24 12.58 24 0 24 C0 16.08 0 8.16 0 0 Z " fill="#22E6EC" transform="translate(1510,943)"/>
<path d="M0 0 C0.83660156 0.42023437 1.67320312 0.84046875 2.53515625 1.2734375 C4.85380606 2.57791365 6.92358388 3.88549739 8.9375 5.625 C8.9375 6.285 8.9375 6.945 8.9375 7.625 C9.88625 7.769375 10.835 7.91375 11.8125 8.0625 C14.9375 8.625 14.9375 8.625 16.9375 9.625 C16.9375 10.285 16.9375 10.945 16.9375 11.625 C19.9075 12.12 19.9075 12.12 22.9375 12.625 C22.9375 13.285 22.9375 13.945 22.9375 14.625 C23.9275 14.625 24.9175 14.625 25.9375 14.625 C25.9375 15.615 25.9375 16.605 25.9375 17.625 C22.9375 16.625 22.9375 16.625 20.9375 15.625 C20.9375 17.275 20.9375 18.925 20.9375 20.625 C22.5875 21.285 24.2375 21.945 25.9375 22.625 C23.48680158 23.51667288 22.25133111 23.72700905 19.73828125 22.91015625 C18.50658203 22.30494141 18.50658203 22.30494141 17.25 21.6875 C16.2909375 21.23246094 15.331875 20.77742187 14.34375 20.30859375 C12.52299154 19.40865465 10.70363492 18.50566397 8.89453125 17.58251953 C7.42793863 16.83441248 5.95735733 16.09408021 4.4831543 15.36108398 C3.02272866 14.63446356 1.57050426 13.891058 0.12817383 13.12915039 C-0.55736572 12.79004639 -1.24290527 12.45094238 -1.94921875 12.1015625 C-2.54951904 11.79299316 -3.14981934 11.48442383 -3.76831055 11.16650391 C-10.35360313 9.61215901 -16.05517336 12.1976663 -21.75390625 15.1953125 C-22.46167709 15.5546286 -23.16944794 15.9139447 -23.89866638 16.28414917 C-26.14677633 17.42812524 -28.38603347 18.58824695 -30.625 19.75 C-33.56160542 21.2569125 -36.50134458 22.75765649 -39.44140625 24.2578125 C-40.15841705 24.62457092 -40.87542786 24.99132935 -41.61416626 25.36920166 C-46.54925528 27.88392069 -51.51565257 30.32125804 -56.52734375 32.6796875 C-57.47438927 33.1291423 -57.47438927 33.1291423 -58.44056702 33.587677 C-62.81962967 35.625 -62.81962967 35.625 -65.0625 35.625 C-62.50861107 38.5487625 -59.62140464 40.11094924 -56.1875 41.875 C-54.64449219 42.68710937 -54.64449219 42.68710937 -53.0703125 43.515625 C-49.69673843 44.75990427 -48.4144365 44.79415545 -45.0625 43.625 C-42.3921571 42.25496232 -39.84634969 40.73290431 -37.26953125 39.1953125 C-28.70702523 35.00270906 -20.71329977 34.10462188 -11.25 34.1875 C-9.53611084 34.19233398 -9.53611084 34.19233398 -7.78759766 34.19726562 C0.38818145 34.33249882 7.41629377 35.2145745 14.9375 38.625 C14.4425 43.575 14.4425 43.575 13.9375 48.625 C15.9175 49.12 15.9175 49.12 17.9375 49.625 C23.67520492 51.23155738 23.67520492 51.23155738 25.9375 54.625 C25.5625 58.3125 25.5625 58.3125 24.9375 61.625 C24.6075 61.625 24.2775 61.625 23.9375 61.625 C23.9375 59.315 23.9375 57.005 23.9375 54.625 C22.761875 54.2846875 22.761875 54.2846875 21.5625 53.9375 C18.54583565 52.84525946 15.99993229 51.62880843 13.1875 50.125 C2.52260821 44.75293712 -10.75247559 43.63910171 -22.3125 46.75 C-27.84018573 48.68236745 -34.87549066 51.43799066 -39.0625 55.625 C-39.29903523 58.15096259 -39.48423692 60.65607207 -39.625 63.1875 C-39.66818359 63.89841797 -39.71136719 64.60933594 -39.75585938 65.34179688 C-39.86221777 67.10261912 -39.96288846 68.8637832 -40.0625 70.625 C-38.72445312 70.80675781 -38.72445312 70.80675781 -37.359375 70.9921875 C-36.18890625 71.15976562 -35.0184375 71.32734375 -33.8125 71.5 C-32.65234375 71.66242188 -31.4921875 71.82484375 -30.296875 71.9921875 C-27.48056687 72.54320431 -25.51032443 73.18296482 -23.0625 74.625 C-23.0625 75.945 -23.0625 77.265 -23.0625 78.625 C-22.0725 78.625 -21.0825 78.625 -20.0625 78.625 C-20.5575 80.605 -20.5575 80.605 -21.0625 82.625 C-25.12324496 82.80155413 -28.65426568 82.57353163 -32.625 81.6875 C-39.05677818 80.28582964 -45.50024217 80.01101517 -52.0625 79.625 C-52.0625 71.705 -52.0625 63.785 -52.0625 55.625 C-55.0325 55.13 -55.0325 55.13 -58.0625 54.625 C-60.6171875 53.43359375 -60.6171875 53.43359375 -62.9375 52.0625 C-64.10925781 51.37994141 -64.10925781 51.37994141 -65.3046875 50.68359375 C-66.17480469 50.15958984 -66.17480469 50.15958984 -67.0625 49.625 C-67.00213048 52.33559145 -66.9149809 55.04093977 -66.8125 57.75 C-66.79832031 58.51054688 -66.78414063 59.27109375 -66.76953125 60.0546875 C-66.53812361 65.42334481 -65.2763336 68.18990964 -62.0625 72.625 C-62.0625 73.945 -62.0625 75.265 -62.0625 76.625 C-63.5475 77.615 -63.5475 77.615 -65.0625 78.625 C-65.56871513 80.64776681 -65.56871513 80.64776681 -65.57421875 82.9765625 C-65.60966797 83.82734375 -65.64511719 84.678125 -65.68164062 85.5546875 C-65.70419922 86.44414063 -65.72675781 87.33359375 -65.75 88.25 C-65.78416016 89.1471875 -65.81832031 90.044375 -65.85351562 90.96875 C-65.93611213 93.18705613 -66.00097923 95.40600936 -66.0625 97.625 C-70.3525 97.625 -74.6425 97.625 -79.0625 97.625 C-79.09988281 96.20445313 -79.13726562 94.78390625 -79.17578125 93.3203125 C-79.24142562 91.46351458 -79.30787348 89.60674493 -79.375 87.75 C-79.39755859 86.81285156 -79.42011719 85.87570312 -79.44335938 84.91015625 C-79.4965332 83.56630859 -79.4965332 83.56630859 -79.55078125 82.1953125 C-79.57696533 81.36789551 -79.60314941 80.54047852 -79.63012695 79.68798828 C-79.89346637 77.23172068 -79.89346637 77.23172068 -83.0625 75.625 C-83.5625 73.25 -83.5625 73.25 -83.0625 70.625 C-82.24394531 70.14289063 -81.42539062 69.66078125 -80.58203125 69.1640625 C-76.61286464 65.16412716 -77.28097483 60.79903701 -77.25 55.375 C-77.22486328 54.34375 -77.19972656 53.3125 -77.17382812 52.25 C-77.11498438 49.70795011 -77.07868493 47.16762084 -77.0625 44.625 C-78.19751953 44.44130859 -78.19751953 44.44130859 -79.35546875 44.25390625 C-82.84273067 43.44373429 -85.18150935 41.70199326 -88.0625 39.625 C-87.73271073 36.75389344 -87.52123558 35.08818933 -85.453125 33 C-80.12268536 29.57606797 -74.82882655 27.33037343 -68.8828125 25.1796875 C-60.0631745 21.77069535 -51.42140563 16.9517584 -43.39453125 11.96875 C-40.60534264 10.36157934 -37.78040691 9.33151049 -34.75 8.25 C-30.09554374 6.5085012 -26.14628165 4.57829178 -22.03125 1.83203125 C-13.96113499 -3.11571783 -8.53588271 -4.35369597 0 0 Z " fill="#47DCAD" transform="translate(474.0625,952.375)"/>
<path d="M0 0 C1.93330324 0.9365298 3.86150045 1.88365451 5.78515625 2.83984375 C6.80279053 3.33645508 7.8204248 3.83306641 8.86889648 4.34472656 C11.86721379 5.81161092 14.85845302 7.29199027 17.84765625 8.77734375 C18.64075195 9.16970215 19.43384766 9.56206055 20.25097656 9.96630859 C24.17079488 11.90678648 28.08099599 13.86554255 31.98486328 15.83789062 C35.26785067 17.49358335 38.55822092 19.13451007 41.84765625 20.77734375 C43.84765625 21.77734375 45.84765625 22.77734375 47.84765625 23.77734375 C44.71353395 26.27261618 41.46340843 28.18126569 37.91015625 30.02734375 C36.89050781 30.56875 35.87085938 31.11015625 34.8203125 31.66796875 C31.45662879 32.92327253 30.19971534 32.92828809 26.84765625 31.77734375 C24.96851808 30.89095782 23.11531063 29.9483961 21.28515625 28.96484375 C19.14347337 27.89400231 16.99768393 26.83133043 14.84765625 25.77734375 C13.99945313 25.35324219 13.15125 24.92914062 12.27734375 24.4921875 C-1.55979716 18.73015419 -20.25002766 19.84110673 -34.05078125 25.26171875 C-37.88255367 27.13417177 -41.45103391 29.23771488 -44.90625 31.73828125 C-48.06308176 33.19865907 -49.82556577 32.67782501 -53.15234375 31.77734375 C-56.328125 30.47265625 -56.328125 30.47265625 -59.46484375 28.90234375 C-61.03685547 28.13277344 -61.03685547 28.13277344 -62.640625 27.34765625 C-65.15234375 25.77734375 -65.15234375 25.77734375 -66.15234375 22.77734375 C-59.90958188 19.71512947 -53.66554931 16.65551795 -47.4206543 13.59765625 C-45.29927154 12.55853251 -43.17817328 11.51882775 -41.05737305 10.47851562 C-37.997341 8.97761196 -34.93626954 7.47884647 -31.875 5.98046875 C-30.46819725 5.28960175 -30.46819725 5.28960175 -29.03297424 4.58477783 C-24.77213396 2.50155737 -20.50075057 0.44171373 -16.19335938 -1.54370117 C-15.14432434 -2.02899544 -15.14432434 -2.02899544 -14.07409668 -2.52409363 C-8.99074172 -4.37190752 -4.62365709 -2.08410115 0 0 Z " fill="#081A20" transform="translate(475.15234375,965.22265625)"/>
<path d="M0 0 C5.28 -0.061875 10.56 -0.12375 16 -0.1875 C17.65 -0.21481201 19.3 -0.24212402 21 -0.27026367 C34.72177488 -0.40500452 34.72177488 -0.40500452 41 3 C45.65014094 8.72325039 46.50005675 13.65024058 46.38671875 20.8515625 C45.73615788 26.14804795 43.86121758 29.37714014 40 33 C31.41373228 37.36434698 22.67509296 37.50376114 13.25 37.25 C8.8775 37.1675 4.505 37.085 0 37 C0 24.79 0 12.58 0 0 Z " fill="#111724" transform="translate(949,967)"/>
<path d="M0 0 C0 4.95 0 9.9 0 15 C-1.93875 15.268125 -3.8775 15.53625 -5.875 15.8125 C-13.26078458 16.96050782 -20.36375874 18.20631012 -26.75 22.25 C-30 24 -30 24 -32.9375 24 C-36.09735808 22.96820961 -38.801199 21.59013888 -41.734375 20.05078125 C-48.76262063 16.7911294 -56.34395262 15.62754487 -64 15 C-65.36298077 2.71634615 -65.36298077 2.71634615 -62.3125 -1.125 C-59.94084842 -2.70610105 -57.61937632 -3.87854236 -55 -5 C-54.19949219 -5.39574219 -53.39898437 -5.79148437 -52.57421875 -6.19921875 C-34.53102964 -14.84175471 -16.54729534 -8.77006653 0 0 Z " fill="#081822" transform="translate(498,1007)"/>
<path d="M0 0 C5.32125 -0.061875 10.6425 -0.12375 16.125 -0.1875 C18.62731201 -0.22846802 18.62731201 -0.22846802 21.18017578 -0.27026367 C22.51854735 -0.27903444 23.85692698 -0.28667698 25.1953125 -0.29296875 C25.877146 -0.30831665 26.55897949 -0.32366455 27.26147461 -0.33947754 C32.76488928 -0.3424588 36.82866222 0.95612021 40.86328125 4.75390625 C41.34152344 5.35074219 41.81976562 5.94757812 42.3125 6.5625 C43.04919922 7.46162109 43.04919922 7.46162109 43.80078125 8.37890625 C46.89064682 12.55576036 46.41377221 16.98959471 46 22 C44.37122916 27.22921166 42.28344343 30.57324526 38 34 C30.38978739 37.86535768 22.88111418 37.34077998 14.5 37.1875 C9.715 37.125625 4.93 37.06375 0 37 C0 24.79 0 12.58 0 0 Z " fill="#101722" transform="translate(609,967)"/>
<path d="M0 0 C4.84023986 -0.13843906 9.6735109 -0.25762776 14.51416016 -0.32958984 C16.15730157 -0.35960598 17.80028486 -0.4004338 19.44287109 -0.45263672 C34.85225017 -0.92979418 34.85225017 -0.92979418 40 2.8984375 C41.6875 4.50537109 41.6875 4.50537109 43 6 C43.66 6.66 44.32 7.32 45 8 C47.29554582 13.96841914 46.3791506 20.49886475 43.98046875 26.2421875 C41.56013744 30.5814269 37.55721338 32.52712885 33 34 C30.39264902 34.16458538 27.89599264 34.23408386 25.29296875 34.1953125 C24.3274408 34.19229126 24.3274408 34.19229126 23.34240723 34.18920898 C20.95736478 34.17881174 18.57242459 34.15088947 16.1875 34.125 C10.845625 34.08375 5.50375 34.0425 0 34 C0 22.78 0 11.56 0 0 Z " fill="#0E1420" transform="translate(725,967)"/>
<path d="M0 0 C4.85732792 -0.09217913 9.71158383 -0.17170375 14.5690918 -0.21972656 C16.21893637 -0.23975797 17.8687107 -0.26699142 19.51831055 -0.30175781 C21.89910274 -0.35065357 24.278951 -0.3730528 26.66015625 -0.390625 C27.38960953 -0.41127014 28.11906281 -0.43191528 28.87062073 -0.45318604 C34.33944792 -0.45554575 37.4797154 0.90633005 42 4 C45.96313352 8.80600854 45.48901204 13.69672625 45.3515625 19.67578125 C44.76241093 25.24653669 42.45191966 27.68973104 38.4375 31.3125 C34.20469197 34.24290556 30.44260795 34.13401145 25.48828125 34.09765625 C24.84258179 34.09664917 24.19688232 34.09564209 23.53161621 34.09460449 C21.12522601 34.08938211 18.71886118 34.07542083 16.3125 34.0625 C10.929375 34.041875 5.54625 34.02125 0 34 C0 22.78 0 11.56 0 0 Z " fill="#0A1823" transform="translate(1193,967)"/>
<path d="M0 0 C3.71854101 1.20895454 5.97581886 3.5068468 8.67480469 6.21533203 C9.49298676 7.02065872 9.49298676 7.02065872 10.32769775 7.84225464 C11.47566163 8.9787574 12.61845379 10.12050485 13.75634766 11.26708984 C15.49398161 13.01103893 17.25652549 14.72666757 19.02246094 16.44189453 C20.13736257 17.55224906 21.25069786 18.664179 22.36230469 19.77783203 C22.88830261 20.28541046 23.41430054 20.79298889 23.95623779 21.31594849 C27.54395369 24.99594977 28.48654656 27.80263553 28.75292969 32.89501953 C26.42483758 35.13356963 25.20864229 35.87476564 21.94042969 36.02001953 C18.12752304 34.67428777 16.3299127 32.83814777 13.65917969 29.87939453 C11.22307857 27.34345321 8.45435958 25.14621111 5.75292969 22.89501953 C5.42292969 35.76501953 5.09292969 48.63501953 4.75292969 61.89501953 C-0.24707031 60.89501953 -0.24707031 60.89501953 -7.24707031 56.89501953 C-7.24707031 46.33501953 -7.24707031 35.77501953 -7.24707031 24.89501953 C-15.52249419 30.07404987 -15.52249419 30.07404987 -19.43457031 33.83251953 C-22.24707031 35.89501953 -22.24707031 35.89501953 -25.49707031 35.89501953 C-28.24707031 34.89501953 -28.24707031 34.89501953 -30.24707031 31.89501953 C-30.87597656 29.20361328 -30.87597656 29.20361328 -30.24707031 25.89501953 C-27.86857807 22.90649746 -25.05409642 20.46627809 -22.18457031 17.95751953 C-20.67194241 16.5952471 -19.16021464 15.23197449 -17.64941406 13.86767578 C-16.91045898 13.20783691 -16.17150391 12.54799805 -15.41015625 11.86816406 C-12.74607116 9.43801331 -10.19917715 6.90907241 -7.67163086 4.33813477 C-3.23985699 -0.15136229 -3.23985699 -0.15136229 0 0 Z " fill="#48DBAB" transform="translate(527.2470703125,904.10498046875)"/>
<path d="M0 0 C2.51036287 3.0482332 3.92296388 5.96605884 5.3046875 9.65625 C5.72363281 10.76226563 6.14257812 11.86828125 6.57421875 13.0078125 C7.00347656 14.16023437 7.43273438 15.31265625 7.875 16.5 C8.72484745 18.76106203 9.57640351 21.02148262 10.4296875 23.28125 C10.84831055 24.39113281 11.26693359 25.50101563 11.69824219 26.64453125 C13.39707717 31.02352374 15.22636781 35.34165958 17.08642578 39.65429688 C18 42 18 42 18 44 C6.78 44 -4.44 44 -16 44 C-15.21655712 38.51589983 -14.16217533 34.25327318 -12.12890625 29.23828125 C-11.84651596 28.52520309 -11.56412567 27.81212494 -11.2731781 27.07743835 C-10.37673671 24.81954795 -9.46959759 22.56612714 -8.5625 20.3125 C-7.9570203 18.78867433 -7.35219643 17.2645879 -6.74804688 15.74023438 C-6.16725217 14.28101682 -5.58589143 12.82202441 -5.00390625 11.36328125 C-4.73300674 10.68405106 -4.46210724 10.00482086 -4.18299866 9.30500793 C-2.90636172 6.13547403 -1.5949831 3.02361239 0 0 Z " fill="#091C28" transform="translate(1337,973)"/>
<path d="M0 0 C0 18.15 0 36.3 0 55 C-3.99590851 56.99795425 -5.67839666 57.3757916 -10 57 C-12.46915013 54.53084987 -12.27521246 53.75971117 -12.35400391 50.35424805 C-12.37967438 49.38952072 -12.40534485 48.4247934 -12.43179321 47.43083191 C-12.44656708 46.38502457 -12.46134094 45.33921722 -12.4765625 44.26171875 C-12.49270599 43.18880081 -12.50884949 42.11588287 -12.52548218 41.01045227 C-12.5531766 38.73660765 -12.57461527 36.46267966 -12.59033203 34.1887207 C-12.62476929 30.71079969 -12.71250845 27.23667819 -12.80078125 23.75976562 C-12.8210345 21.55211134 -12.83806692 19.34442469 -12.8515625 17.13671875 C-12.88657867 16.0969841 -12.92159485 15.05724945 -12.95767212 13.98600769 C-12.91519215 6.91331268 -12.91519215 6.91331268 -10.23162842 4.23526001 C-8.1969045 2.94575437 -6.22006707 1.92712375 -4 1 C-2 0 -2 0 0 0 Z " fill="#50CDB0" transform="translate(534,1010)"/>
<path d="M0 0 C0.33 0 0.66 0 1 0 C1 5.28 1 10.56 1 16 C1.66 15.67 2.32 15.34 3 15 C2.67 14.67 2.34 14.34 2 14 C1.95936168 12.33382885 1.957279 10.66611905 2 9 C6.75 7 6.75 7 9 7 C9.01417969 7.92941406 9.02835937 8.85882812 9.04296875 9.81640625 C9.34642446 17.68165011 9.91843166 22.00635529 15 28 C15 29.32 15 30.64 15 32 C14.01 32.66 13.02 33.32 12 34 C11.49378487 36.02276681 11.49378487 36.02276681 11.48828125 38.3515625 C11.45283203 39.20234375 11.41738281 40.053125 11.38085938 40.9296875 C11.35830078 41.81914063 11.33574219 42.70859375 11.3125 43.625 C11.27833984 44.5221875 11.24417969 45.419375 11.20898438 46.34375 C11.12638787 48.56205613 11.06152077 50.78100936 11 53 C6.71 53 2.42 53 -2 53 C-2.03738281 51.57945313 -2.07476562 50.15890625 -2.11328125 48.6953125 C-2.17892562 46.83851458 -2.24537348 44.98174493 -2.3125 43.125 C-2.33505859 42.18785156 -2.35761719 41.25070312 -2.38085938 40.28515625 C-2.41630859 39.38925781 -2.45175781 38.49335937 -2.48828125 37.5703125 C-2.51446533 36.74289551 -2.54064941 35.91547852 -2.56762695 35.06298828 C-2.83096637 32.60672068 -2.83096637 32.60672068 -6 31 C-6.5 28.625 -6.5 28.625 -6 26 C-5.18144531 25.51789062 -4.36289062 25.03578125 -3.51953125 24.5390625 C0.44963536 20.53912716 -0.21847483 16.17403701 -0.1875 10.75 C-0.16236328 9.71875 -0.13722656 8.6875 -0.11132812 7.625 C-0.05248438 5.08295011 -0.01618493 2.54262084 0 0 Z " fill="#4CDFB7" transform="translate(397,997)"/>
<path d="M0 0 C5.625 2.25 5.625 2.25 7 5 C7.08426094 6.6674606 7.10725143 8.33825187 7.09765625 10.0078125 C7.09443359 10.99394531 7.09121094 11.98007813 7.08789062 12.99609375 C7.07951172 14.02863281 7.07113281 15.06117187 7.0625 16.125 C7.05798828 17.16527344 7.05347656 18.20554687 7.04882812 19.27734375 C7.03701952 21.85161962 7.02055075 24.42578146 7 27 C4.625 27.125 4.625 27.125 2 27 C1.34 26.34 0.68 25.68 0 25 C-0.495 25.33 -0.99 25.66 -1.5 26 C-5.04125432 27.41650173 -8.24301259 27.74677824 -12 27 C-14.99097304 24.45767292 -15.84202557 22.8425303 -16.5625 19 C-16 16 -16 16 -14.125 13.125 C-9.800479 10.18432572 -6.09402814 10.36888147 -1 11 C-0.34 11.33 0.32 11.66 1 12 C0.67 10.35 0.34 8.7 0 7 C-4.62 7 -9.24 7 -14 7 C-14 5.68 -14 4.36 -14 3 C-9.22606643 0.13563986 -5.44928447 -0.82335113 0 0 Z " fill="#121829" transform="translate(1887,1893)"/>
<path d="M0 0 C0.33 0 0.66 0 1 0 C1 7.26 1 14.52 1 22 C13.21 22 25.42 22 38 22 C38 53.68 38 85.36 38 118 C46.25 118 54.5 118 63 118 C63 85.99 63 53.98 63 21 C63.99 20.505 63.99 20.505 65 20 C65 20.66 65 21.32 65 22 C69.23603463 21.88184693 73.47183326 21.75760568 77.70751953 21.62768555 C79.1488762 21.58433769 80.59028418 21.54266248 82.03173828 21.50268555 C84.10204541 21.44497912 86.17209432 21.38128629 88.2421875 21.31640625 C89.4885498 21.27974854 90.73491211 21.24309082 92.01904297 21.20532227 C94.92636942 21.19710521 94.92636942 21.19710521 97 20 C97.46853709 17.96820406 97.46853709 17.96820406 97.6328125 15.52734375 C97.75849609 14.17866211 97.75849609 14.17866211 97.88671875 12.80273438 C97.96535156 11.85720703 98.04398438 10.91167969 98.125 9.9375 C98.25455078 8.5134082 98.25455078 8.5134082 98.38671875 7.06054688 C98.59954368 4.70764908 98.80357031 2.35431405 99 0 C99.33 0 99.66 0 100 0 C100 7.92 100 15.84 100 24 C88.12 24 76.24 24 64 24 C64 55.35 64 86.7 64 119 C55.09 119 46.18 119 37 119 C37 87.65 37 56.3 37 24 C24.79 24 12.58 24 0 24 C0 16.08 0 8.16 0 0 Z " fill="#5CE3E4" transform="translate(1510,943)"/>
<path d="M0 0 C1.20462891 -0.02126953 1.20462891 -0.02126953 2.43359375 -0.04296875 C4.5625 0.1875 4.5625 0.1875 6.5625 2.1875 C7.0081098 5.33409932 6.88661997 8.51292493 6.875 11.6875 C6.89111328 12.56792969 6.90722656 13.44835938 6.92382812 14.35546875 C6.92479492 15.61810547 6.92479492 15.61810547 6.92578125 16.90625 C6.93025269 18.06543945 6.93025269 18.06543945 6.93481445 19.24804688 C6.81195068 19.88806641 6.68908691 20.52808594 6.5625 21.1875 C3.09326119 23.50032587 1.64044425 23.61228586 -2.4375 23.1875 C-4.54947944 21.61186683 -5.34246391 20.73909986 -5.79394531 18.11865234 C-5.78459961 17.34473145 -5.77525391 16.57081055 -5.765625 15.7734375 C-5.75789063 14.50886719 -5.75789063 14.50886719 -5.75 13.21875 C-5.729375 12.3421875 -5.70875 11.465625 -5.6875 10.5625 C-5.68234375 9.67820312 -5.6771875 8.79390625 -5.671875 7.8828125 C-5.57570068 0.04460561 -5.57570068 0.04460561 0 0 Z " fill="#49D1B2" transform="translate(427.4375,1044.8125)"/>
<path d="M0 0 C0.05787784 3.62493334 0.0935542 7.24974857 0.125 10.875 C0.14175781 11.90753906 0.15851563 12.94007812 0.17578125 14.00390625 C0.18222656 14.99003906 0.18867188 15.97617188 0.1953125 16.9921875 C0.20578613 17.90339355 0.21625977 18.81459961 0.22705078 19.75341797 C0 22 0 22 -2 24 C-6.05261287 24.34490322 -7.54754176 24.30163882 -11 22 C-11.34057617 19.93701172 -11.34057617 19.93701172 -11.29296875 17.4296875 C-11.28330078 16.53378906 -11.27363281 15.63789062 -11.26367188 14.71484375 C-11.23853516 13.77769531 -11.21339844 12.84054687 -11.1875 11.875 C-11.17396484 10.93011719 -11.16042969 9.98523437 -11.14648438 9.01171875 C-11.11106306 6.67391221 -11.06167271 4.33723763 -11 2 C-7.12315913 0.80712589 -4.08378077 0 0 0 Z " fill="#48D7B8" transform="translate(509,1044)"/>
<path d="M0 0 C2 2 2 2 2.3125 4.9375 C1.96328527 8.35980433 1.47001079 8.83874055 -1 11 C-1 11.99 -1 12.98 -1 14 C-3 16 -3 16 -6.875 16.4375 C-10.21443217 16.34642458 -10.82302163 16.15043161 -13.5 13.875 C-15.27801176 10.46714413 -15.70960213 8.78454468 -15 5 C-11.22621818 -0.78646546 -6.4105671 -1.07788296 0 0 Z " fill="#13182A" transform="translate(1886,1904)"/>
<path d="M0 0 C22.44 0 44.88 0 68 0 C68 0.33 68 0.66 68 1 C46.88 1.33 25.76 1.66 4 2 C2.18360609 5.63278781 1.74856639 6.69975019 1.7215271 10.46722412 C1.71036362 11.35620895 1.69920013 12.24519379 1.68769836 13.16111755 C1.68553818 14.128564 1.68337799 15.09601044 1.68115234 16.09277344 C1.67110672 17.11748245 1.6610611 18.14219147 1.65071106 19.19795227 C1.61981946 22.58508747 1.60282713 25.97214342 1.5859375 29.359375 C1.56723068 31.70779098 1.54765764 34.05620021 1.5272522 36.40460205 C1.47587374 42.58591738 1.43627849 48.76725451 1.39910889 54.94866943 C1.35910512 61.25619934 1.30799623 67.56363808 1.2578125 73.87109375 C1.16098551 86.24733185 1.07660232 98.62362136 1 111 C0.67 111 0.34 111 0 111 C0 74.37 0 37.74 0 0 Z " fill="#DDDED9" transform="translate(698,943)"/>
<path d="M0 0 C2.31 0 4.62 0 7 0 C7 8.58 7 17.16 7 26 C4.69 26 2.38 26 0 26 C0 17.42 0 8.84 0 0 Z " fill="#1D232F" transform="translate(1900,1894)"/>
<path d="M0 0 C1.04812866 -0.00809692 1.04812866 -0.00809692 2.11743164 -0.01635742 C7.11688668 0.05438668 7.11688668 0.05438668 9.375 2.3125 C11.22983454 2.91963803 13.10921385 3.45381052 15 3.9375 C16.50433594 4.32808594 16.50433594 4.32808594 18.0390625 4.7265625 C19.19535156 5.01660156 19.19535156 5.01660156 20.375 5.3125 C20.375 5.9725 20.375 6.6325 20.375 7.3125 C20.91125 7.43625 21.4475 7.56 22 7.6875 C30.03457447 9.8018617 30.03457447 9.8018617 32.375 13.3125 C32 17 32 17 31.375 20.3125 C31.045 20.3125 30.715 20.3125 30.375 20.3125 C30.375 18.0025 30.375 15.6925 30.375 13.3125 C29.59125 13.085625 28.8075 12.85875 28 12.625 C24.98333565 11.53275946 22.43743229 10.31630843 19.625 8.8125 C8.9928961 3.45695286 -4.2897521 2.30167972 -15.8125 5.4375 C-21.6673453 7.48126556 -27.1581257 10.40998426 -32.625 13.3125 C-32.625 12.3225 -32.625 11.3325 -32.625 10.3125 C-30.975 9.9825 -29.325 9.6525 -27.625 9.3125 C-27.295 8.3225 -26.965 7.3325 -26.625 6.3125 C-24.975 6.3125 -23.325 6.3125 -21.625 6.3125 C-21.295 5.3225 -20.965 4.3325 -20.625 3.3125 C-14.12631826 0.45684058 -7.00523753 0.0340714 0 0 Z " fill="#5DDAB1" transform="translate(467.625,993.6875)"/>
<path d="M0 0 C0.33 0 0.66 0 1 0 C0.67 2.31 0.34 4.62 0 7 C0.66 7 1.32 7 2 7 C2.19517554 8.93674185 2.38087873 10.87444009 2.5625 12.8125 C2.66691406 13.89144531 2.77132812 14.97039063 2.87890625 16.08203125 C3 19 3 19 2 22 C2.33 22.66 2.66 23.32 3 24 C2.66015625 25.9453125 2.66015625 25.9453125 2.0625 28.125 C1.86785156 28.84945312 1.67320312 29.57390625 1.47265625 30.3203125 C1.31667969 30.87460937 1.16070313 31.42890625 1 32 C3.33075929 31.04134491 3.33075929 31.04134491 5 28 C5.33 29.32 5.66 30.64 6 32 C6.99 32 7.98 32 9 32 C9.33 25.4 9.66 18.8 10 12 C10.33 12 10.66 12 11 12 C11 20.58 11 29.16 11 38 C5.85191212 36.97038242 3.37079462 35.65675751 -1 33 C-1.02465392 28.46102295 -1.04283789 23.92208457 -1.05493164 19.38305664 C-1.0599714 17.83780234 -1.0668032 16.29255284 -1.07543945 14.74731445 C-1.08752076 12.53074971 -1.09323173 10.31424782 -1.09765625 8.09765625 C-1.10281754 7.4028566 -1.10797882 6.70805695 -1.11329651 5.99220276 C-1.11349277 4.3277067 -1.06189129 2.66334501 -1 1 C-0.67 0.67 -0.34 0.34 0 0 Z " fill="#61D3A9" transform="translate(521,928)"/>
<path d="M0 0 C0.33 0 0.66 0 1 0 C1 7.92 1 15.84 1 24 C-18.14 24 -37.28 24 -57 24 C-57 23.67 -57 23.34 -57 23 C-44.13 22.67 -31.26 22.34 -18 22 C-17.67 21.34 -17.34 20.68 -17 20 C-14.41796875 19.62109375 -14.41796875 19.62109375 -11.1875 19.4375 C-7.66323027 19.22715991 -4.3952409 18.9947316 -1 18 C-1.01160156 17.20335937 -1.02320313 16.40671875 -1.03515625 15.5859375 C-1.12478032 5.06151142 -1.12478032 5.06151142 0 0 Z " fill="#3FC4C7" transform="translate(1497,994)"/>
<path d="M0 0 C0.99 0.99 1.98 1.98 3 3 C1.33576637 7.02919722 -0.45093855 10.93134753 -2.4375 14.8125 C-4.60204029 19.07638358 -6.41842133 23.39862336 -8.10546875 27.87109375 C-9 30 -9 30 -11 33 C-11.2236068 35.9254644 -11.2236068 35.9254644 -10 38 C-7.65061112 39.17469444 -6.04926795 39.20034889 -3.4296875 39.31640625 C-2.08583984 39.37924805 -2.08583984 39.37924805 -0.71484375 39.44335938 C0.22230469 39.48267578 1.15945313 39.52199219 2.125 39.5625 C3.54232422 39.62727539 3.54232422 39.62727539 4.98828125 39.69335938 C7.32537092 39.79959072 9.6625683 39.90163176 12 40 C12.33 39.34 12.66 38.68 13 38 C13 38.99 13 39.98 13 41 C3.43 41 -6.14 41 -16 41 C-14.18616013 34.9538671 -12.58951359 29.6700334 -10.1171875 24.00390625 C-9.85745148 23.40368149 -9.59771545 22.80345673 -9.33010864 22.18504333 C-8.51696731 20.30853626 -7.69635932 18.43542242 -6.875 16.5625 C-5.78705589 14.06466913 -4.7021439 11.56553801 -3.6171875 9.06640625 C-3.13878418 7.97271729 -2.66038086 6.87902832 -2.16748047 5.75219727 C-0.95174465 2.98749771 -0.95174465 2.98749771 0 0 Z " fill="#35C6BF" transform="translate(1290,1021)"/>
<path d="M0 0 C0.92683594 -0.00257813 1.85367187 -0.00515625 2.80859375 -0.0078125 C5.49115981 0.12155948 7.94818718 0.52717166 10.5625 1.125 C10.5625 1.455 10.5625 1.785 10.5625 2.125 C9.59570312 2.15078125 8.62890625 2.1765625 7.6328125 2.203125 C-6.08668531 2.80080609 -14.15669728 6.42518037 -24.65234375 14.98046875 C-27.4375 17.125 -27.4375 17.125 -30.4375 18.125 C-29.06962487 12.48251508 -24.99700906 9.34088562 -20.4375 6.125 C-13.70768262 2.50482238 -7.67713922 -0.02129581 0 0 Z " fill="#0D3134" transform="translate(1097.4375,964.875)"/>
<path d="M0 0 C0.33 0 0.66 0 1 0 C1 7.92 1 15.84 1 24 C-11.21 24 -23.42 24 -36 24 C-35.67 22.68 -35.34 21.36 -35 20 C-34.67 20.66 -34.34 21.32 -34 22 C-29.76396537 21.88184693 -25.52816674 21.75760568 -21.29248047 21.62768555 C-19.8511238 21.58433769 -18.40971582 21.54266248 -16.96826172 21.50268555 C-14.89795459 21.44497912 -12.82790568 21.38128629 -10.7578125 21.31640625 C-9.5114502 21.27974854 -8.26508789 21.24309082 -6.98095703 21.20532227 C-4.07363058 21.19710521 -4.07363058 21.19710521 -2 20 C-1.53146291 17.96820406 -1.53146291 17.96820406 -1.3671875 15.52734375 C-1.28339844 14.62822266 -1.19960937 13.72910156 -1.11328125 12.80273438 C-1.03464844 11.85720703 -0.95601562 10.91167969 -0.875 9.9375 C-0.78863281 8.98810547 -0.70226563 8.03871094 -0.61328125 7.06054688 C-0.40045632 4.70764908 -0.19642969 2.35431405 0 0 Z " fill="#49DCDF" transform="translate(1609,943)"/>
<path d="M0 0 C0.61875 0.268125 1.2375 0.53625 1.875 0.8125 C2.90625 1.204375 3.9375 1.59625 5 2 C5.69351562 2.26425781 6.38703125 2.52851562 7.1015625 2.80078125 C17.42149951 6.34720911 26.8442938 6.1306658 36.85546875 1.77734375 C37.56316406 1.52082031 38.27085938 1.26429687 39 1 C39.66 1.33 40.32 1.66 41 2 C38.52414762 4.65269897 36.40973899 6.68010103 33 8 C30.61280232 8 28.22688836 7.98578041 25.83984375 7.96484375 C24.20573017 7.95555147 22.57161553 7.94644356 20.9375 7.9375 C20.10927734 7.92912109 19.28105469 7.92074219 18.42773438 7.91210938 C17.63560547 7.90888672 16.84347656 7.90566406 16.02734375 7.90234375 C15.30281006 7.89710693 14.57827637 7.89187012 13.83178711 7.88647461 C11.90162627 7.88625726 11.90162627 7.88625726 10 9 C7.99199544 8.71887936 5.98985949 8.38932033 4 8 C3.896875 7.38125 3.79375 6.7625 3.6875 6.125 C3.12474627 3.63473516 3.12474627 3.63473516 0 2 C0 1.34 0 0.68 0 0 Z " fill="#1DB4A4" transform="translate(1077,1033)"/>
<path d="M0 0 C0.91120605 0.01047363 1.82241211 0.02094727 2.76123047 0.03173828 C3.74736328 0.03818359 4.73349609 0.04462891 5.74951172 0.05126953 C7.29832031 0.07640625 7.29832031 0.07640625 8.87841797 0.10205078 C9.91869141 0.11107422 10.95896484 0.12009766 12.03076172 0.12939453 C14.60520889 0.15301331 17.17920009 0.18594929 19.75341797 0.22705078 C19.75341797 1.21705078 19.75341797 2.20705078 19.75341797 3.22705078 C25.36341797 3.22705078 30.97341797 3.22705078 36.75341797 3.22705078 C36.75341797 3.55705078 36.75341797 3.88705078 36.75341797 4.22705078 C21.90341797 4.22705078 7.05341797 4.22705078 -8.24658203 4.22705078 C-6.92658203 3.56705078 -5.60658203 2.90705078 -4.24658203 2.22705078 C-2.24658203 0.22705078 -2.24658203 0.22705078 0 0 Z " fill="#41E5EC" transform="translate(1448.24658203125,1012.77294921875)"/>
<path d="M0 0 C0 0.66 0 1.32 0 2 C-5.55798883 6.17100428 -11.52767207 9.5106431 -18 12 C-22.87831647 13.87311811 -22.87831647 13.87311811 -27 17 C-29.65537372 17.56520003 -32.29144713 17.73788198 -35 18 C-31.85698294 14.45143235 -28.41105208 12.44763976 -24.1875 10.4375 C-23.00542969 9.85871094 -21.82335937 9.27992188 -20.60546875 8.68359375 C-18.1852323 7.55345083 -15.77681405 6.46365812 -13.3203125 5.421875 C-10.02254098 4.00965284 -6.87279847 2.43425774 -3.69921875 0.76953125 C-2 0 -2 0 0 0 Z " fill="#3AC28E" transform="translate(422,970)"/>
<path d="M0 0 C0.845625 0.144375 1.69125 0.28875 2.5625 0.4375 C4.2640625 0.7159375 4.2640625 0.7159375 6 1 C7.05461426 1.1738623 8.10922852 1.34772461 9.19580078 1.52685547 C13.25056386 2.0311637 17.22710325 2.14417666 21.3046875 2.1328125 C22.06927277 2.13376923 22.83385803 2.13472595 23.62161255 2.13571167 C25.22332848 2.13638766 26.82504725 2.13457421 28.42675781 2.13037109 C30.88873322 2.12496987 33.35052987 2.13035833 35.8125 2.13671875 C37.37239624 2.13605873 38.93229236 2.13477916 40.4921875 2.1328125 C41.59987991 2.13584885 41.59987991 2.13584885 42.72994995 2.13894653 C46.15317458 2.43037379 46.15317458 2.43037379 49 1 C50.66617115 0.95936168 52.33388095 0.957279 54 1 C48.61234147 6.38765853 39.24655287 5.33585032 32.10351562 5.37109375 C31.37688721 5.37093262 30.65025879 5.37077148 29.90161133 5.37060547 C27.70249426 5.37497024 25.50540301 5.41134721 23.30664062 5.44921875 C14.88607788 5.51409926 7.72838466 4.66043175 0 1 C0 0.67 0 0.34 0 0 Z " fill="#5B5F6A" transform="translate(1862,1933)"/>
<path d="M0 0 C4.85896942 4.85896942 4.24032401 13.63818322 4.3125 20.125 C4.30000792 26.83636756 3.98453942 33.01546058 -1 38 C-0.89171875 36.14761719 -0.89171875 36.14761719 -0.78125 34.2578125 C-0.14415875 22.82423902 0.12445806 11.45014152 0 0 Z " fill="#B7C4C4" transform="translate(679,967)"/>
<path d="M0 0 C0.66 0.33 1.32 0.66 2 1 C1.34 1.66 0.68 2.32 0 3 C0.28983269 6.30683466 0.28983269 6.30683466 2 9 C2.98045065 15.80868507 3.17226897 22.22689038 2 29 C5.3 29 8.6 29 12 29 C11.97679687 27.79601563 11.95359375 26.59203125 11.9296875 25.3515625 C11.91093137 23.77604785 11.89273101 22.20052652 11.875 20.625 C11.85824219 19.8309375 11.84148437 19.036875 11.82421875 18.21875 C11.80664527 16.14507985 11.89664832 14.07116759 12 12 C12.66 11.34 13.32 10.68 14 10 C14 16.6 14 23.2 14 30 C9.71 30 5.42 30 1 30 C0.96261719 28.57945313 0.92523438 27.15890625 0.88671875 25.6953125 C0.82107438 23.83851458 0.75462652 21.98174493 0.6875 20.125 C0.66494141 19.18785156 0.64238281 18.25070312 0.61914062 17.28515625 C0.58369141 16.38925781 0.54824219 15.49335937 0.51171875 14.5703125 C0.48553467 13.74289551 0.45935059 12.91547852 0.43237305 12.06298828 C0.16903363 9.60672068 0.16903363 9.60672068 -3 8 C-3.375 5.5625 -3.375 5.5625 -3 3 C-1.5 1.1875 -1.5 1.1875 0 0 Z " fill="#6DE0C1" transform="translate(394,1020)"/>
<path d="M0 0 C0.33 0 0.66 0 1 0 C1.05386629 2.12472576 1.09273071 4.24983652 1.125 6.375 C1.14820313 7.55835938 1.17140625 8.74171875 1.1953125 9.9609375 C1 13 1 13 -1 15 C-4 15.25 -4 15.25 -7 15 C-7.66 14.34 -8.32 13.68 -9 13 C-7.14285714 5.42857143 -7.14285714 5.42857143 -4 3 C-3.01 3.33 -2.02 3.66 -1 4 C-0.67 2.68 -0.34 1.36 0 0 Z " fill="#3FCAA7" transform="translate(508,1053)"/>
<path d="M0 0 C9.96907121 3.97291399 19.62112699 8.19637511 29.125 13.1875 C29.94242676 13.61546875 30.75985352 14.0434375 31.60205078 14.484375 C35.29569145 16.44856983 38.68951173 18.42574137 42 21 C41.01 21.33 40.02 21.66 39 22 C39 21.34 39 20.68 39 20 C35.7 19.01 32.4 18.02 29 17 C29 16.34 29 15.68 29 15 C28.0925 14.896875 27.185 14.79375 26.25 14.6875 C22.83466426 13.96502513 21.71373451 13.04417758 19 11 C17.45890452 10.32394084 15.89389577 9.70051601 14.3125 9.125 C9.26114606 7.18852256 4.65443764 4.74319513 0 2 C0 1.34 0 0.68 0 0 Z " fill="#0C3530" transform="translate(481,969)"/>
<path d="M0 0 C0.66 0.99 1.32 1.98 2 3 C2.33 3 2.66 3 3 3 C3 5.64 3 8.28 3 11 C3.33 10.34 3.66 9.68 4 9 C4.99 9 5.98 9 7 9 C7.309375 8.360625 7.61875 7.72125 7.9375 7.0625 C9 5 9 5 10 4 C11.66617115 3.95936168 13.33388095 3.957279 15 4 C8.25971731 10.93286219 8.25971731 10.93286219 5 13 C1.8125 12.9375 1.8125 12.9375 -1 12 C-3.31282587 8.53076119 -3.42478586 7.07794425 -3 3 C-1.5 1.125 -1.5 1.125 0 0 Z M-2 4 C-1.67 4.66 -1.34 5.32 -1 6 C-0.67 5.34 -0.34 4.68 0 4 C-0.66 4 -1.32 4 -2 4 Z " fill="#58C79F" transform="translate(500,927)"/>
<path d="M0 0 C2.375 -0.1875 2.375 -0.1875 5 0 C7.13604308 3.20406462 7.24208908 3.99600747 7.1953125 7.66796875 C7.18886719 8.56064453 7.18242187 9.45332031 7.17578125 10.37304688 C7.15902344 11.30181641 7.14226562 12.23058594 7.125 13.1875 C7.11597656 14.12787109 7.10695313 15.06824219 7.09765625 16.03710938 C7.07409056 18.35832968 7.04119116 20.67903644 7 23 C8.08410156 22.81566406 9.16820312 22.63132812 10.28515625 22.44140625 C14.22671432 21.97306128 16.37949543 22.49881518 20 24 C20 24.33 20 24.66 20 25 C14.72 25 9.44 25 4 25 C4 17.08 4 9.16 4 1 C2.68 0.67 1.36 0.34 0 0 Z " fill="#60D6B2" transform="translate(418,1007)"/>
<path d="M0 0 C5.05369645 -0.04948633 10.10725142 -0.08576045 15.16113281 -0.10986328 C16.87990781 -0.1199127 18.59866575 -0.13355445 20.31738281 -0.15087891 C22.78975641 -0.17517391 25.26190369 -0.18649368 27.734375 -0.1953125 C28.50118591 -0.20563507 29.26799683 -0.21595764 30.05804443 -0.22659302 C33.85956767 -0.22739012 36.77864518 -0.14509572 40 2 C40 2.66 40 3.32 40 4 C40.66 4 41.32 4 42 4 C41.67 4.66 41.34 5.32 41 6 C40.17999512 5.5155542 39.35999023 5.0311084 38.51513672 4.53198242 C34.50060035 2.78234944 31.05722261 2.52567896 26.7578125 2.48828125 C25.98944061 2.47033005 25.22106873 2.45237885 24.42941284 2.43388367 C21.99466305 2.38005042 19.5601062 2.34597308 17.125 2.3125 C15.46611914 2.27930295 13.80726365 2.24481109 12.1484375 2.20898438 C8.09909818 2.12434009 4.04981339 2.05740143 0 2 C0 1.34 0 0.68 0 0 Z " fill="#40AEA0" transform="translate(1193,965)"/>
<path d="M0 0 C1.65 0.33 3.3 0.66 5 1 C4.01 4.63 3.02 8.26 2 12 C19.325 11.505 19.325 11.505 37 11 C37 11.66 37 12.32 37 13 C31.76762064 13.19210448 26.53502233 13.37085125 21.30175781 13.53710938 C19.5207082 13.59558966 17.73977553 13.65775006 15.95898438 13.72363281 C13.40256032 13.81757713 10.84601088 13.89837558 8.2890625 13.9765625 C7.09055161 14.02485703 7.09055161 14.02485703 5.86782837 14.0741272 C3.91245465 14.12738475 1.95473759 14.07296352 0 14 C-0.66 13.34 -1.32 12.68 -2 12 C-1.34 12 -0.68 12 0 12 C0 8.04 0 4.08 0 0 Z " fill="#29ADA6" transform="translate(1319,1005)"/>
<path d="M0 0 C0.33 0 0.66 0 1 0 C1 7.92 1 15.84 1 24 C-1.536875 24.185625 -4.07375 24.37125 -6.6875 24.5625 C-7.47729248 24.62381104 -8.26708496 24.68512207 -9.08081055 24.74829102 C-12.9135154 25.00755225 -16.28024533 24.99046722 -20 24 C-20 23.67 -20 23.34 -20 23 C-13.65758005 21.84683274 -7.43311296 21.90492937 -1 22 C-1.00785522 21.10692139 -1.00785522 21.10692139 -1.01586914 20.19580078 C-1.03661999 17.50554453 -1.04965407 14.81530511 -1.0625 12.125 C-1.07087891 11.18785156 -1.07925781 10.25070312 -1.08789062 9.28515625 C-1.09272461 7.94130859 -1.09272461 7.94130859 -1.09765625 6.5703125 C-1.10551147 5.32918701 -1.10551147 5.32918701 -1.11352539 4.06298828 C-1 2 -1 2 0 0 Z " fill="#55CAA1" transform="translate(509,1008)"/>
<path d="M0 0 C0.33 0 0.66 0 1 0 C0.88590407 1.45922693 0.75834456 2.91740598 0.625 4.375 C0.55539062 5.18710937 0.48578125 5.99921875 0.4140625 6.8359375 C0 9 0 9 -2 11 C-2.49795323 12.65984411 -2.99011904 14.32191032 -3.4375 15.99609375 C-4.84009488 20.99283802 -6.34060919 26.18150524 -10 30 C-10.66 30 -11.32 30 -12 30 C-9.8197371 23.12052968 -7.19745965 16.54944102 -4.3125 9.9375 C-3.89677734 8.97650391 -3.48105469 8.01550781 -3.05273438 7.02539062 C-2.03848513 4.68212514 -1.02085998 2.34039113 0 0 Z " fill="#3AC7C3" transform="translate(1321,948)"/>
<path d="M0 0 C0.33 0 0.66 0 1 0 C1 5.61 1 11.22 1 17 C-4.28 17 -9.56 17 -15 17 C-14.505 15.515 -14.505 15.515 -14 14 C-11.66666667 14 -9.33333333 14 -7 14 C-6.34 12.68 -5.68 11.36 -5 10 C-3.35 10.33 -1.7 10.66 0 11 C0 7.37 0 3.74 0 0 Z " fill="#39E3EC" transform="translate(1438,1044)"/>
<path d="M0 0 C5.72233032 0.14672642 8.75964262 2.87513921 12.94921875 6.40625 C15.00549081 8.18652301 15.00549081 8.18652301 18 9 C21.38776892 7.58658924 24.60126382 5.91653448 27.87109375 4.25 C31.16235921 2.9351374 31.81664567 2.98008618 35 4 C32.23456804 5.51012131 29.46183193 7.00630148 26.6875 8.5 C25.90181641 8.92925781 25.11613281 9.35851562 24.30664062 9.80078125 C23.54931641 10.20683594 22.79199219 10.61289062 22.01171875 11.03125 C21.31522217 11.40830078 20.61872559 11.78535156 19.90112305 12.17382812 C18 13 18 13 15 13 C14.67 12.01 14.34 11.02 14 10 C11.81921615 8.20121875 11.81921615 8.20121875 9.1875 6.5 C6.06695932 4.39812917 2.9894191 2.28561647 0 0 Z " fill="#3CBFA9" transform="translate(1112,967)"/>
<path d="M0 0 C4.37006472 6.55509708 6.57535802 12.08882721 6 20 C6.66 20.33 7.32 20.66 8 21 C7.34 21.66 6.68 22.32 6 23 C4.49394598 19.71106997 2.99619468 16.41842554 1.5 13.125 C1.07074219 12.18785156 0.64148437 11.25070312 0.19921875 10.28515625 C-0.20683594 9.38925781 -0.61289063 8.49335937 -1.03125 7.5703125 C-1.40830078 6.74289551 -1.78535156 5.91547852 -2.17382812 5.06298828 C-3 3 -3 3 -3 1 C-2.01 0.67 -1.02 0.34 0 0 Z " fill="#0C252F" transform="translate(1395,1037)"/>
<path d="M0 0 C2.06547922 3.09821883 3.56243611 6.18449352 5.125 9.5625 C5.66382813 10.71878906 6.20265625 11.87507813 6.7578125 13.06640625 C8 16 8 16 8 18 C-1.57 18 -11.14 18 -21 18 C-21 17.67 -21 17.34 -21 17 C-8.625 16.505 -8.625 16.505 4 16 C3.34 14.35 2.68 12.7 2 11 C2 9.68 2 8.36 2 7 C1.34 7 0.68 7 0 7 C0 4.69 0 2.38 0 0 Z " fill="#4BD1D1" transform="translate(1394,1044)"/>
<path d="M0 0 C18.15 0 36.3 0 55 0 C55 0.33 55 0.66 55 1 C54.0255896 1.03758423 54.0255896 1.03758423 53.03149414 1.07592773 C50.04168912 1.19313851 47.05210465 1.31528919 44.0625 1.4375 C42.53012695 1.49647461 42.53012695 1.49647461 40.96679688 1.55664062 C36.23854619 1.75302164 31.56843808 2.01131173 26.87109375 2.59765625 C23 3 23 3 21 2 C19.40737934 1.84824451 17.80935144 1.75099675 16.2109375 1.68359375 C15.26992187 1.64169922 14.32890625 1.59980469 13.359375 1.55664062 C12.37453125 1.51732422 11.3896875 1.47800781 10.375 1.4375 C9.38242188 1.39431641 8.38984375 1.35113281 7.3671875 1.30664062 C4.91160162 1.20038931 2.45591297 1.09835036 0 1 C0 0.67 0 0.34 0 0 Z " fill="#0C2D31" transform="translate(1310,1041)"/>
<path d="M0 0 C1.65 0 3.3 0 5 0 C0.26629053 3.82021173 -5.22760024 6.20927654 -10.67260742 8.83544922 C-12.56491422 9.75116828 -14.44935682 10.68188041 -16.33398438 11.61328125 C-17.53600612 12.19624584 -18.73846556 12.778309 -19.94140625 13.359375 C-21.03138916 13.89014648 -22.12137207 14.42091797 -23.24438477 14.96777344 C-26 16 -26 16 -29 15 C-25.57653445 11.85041169 -22.55737263 11.43820891 -18 11 C-17.67 10.01 -17.34 9.02 -17 8 C-15.07421875 7.0859375 -15.07421875 7.0859375 -12.6875 6.375 C-11.90761719 6.13523437 -11.12773437 5.89546875 -10.32421875 5.6484375 C-8.22352756 5.06236231 -6.11934729 4.51407509 -4 4 C-4 3.34 -4 2.68 -4 2 C-2.68 2 -1.36 2 0 2 C0 1.34 0 0.68 0 0 Z " fill="#5CDAAF" transform="translate(445,968)"/>
<path d="M0 0 C0.66 0.99 1.32 1.98 2 3 C1.5625 5.0625 1.5625 5.0625 1 7 C1.83333333 9.16666667 1.83333333 9.16666667 4 10 C5.5195764 10.15123831 7.04472502 10.24881693 8.5703125 10.31640625 C9.91416016 10.37924805 9.91416016 10.37924805 11.28515625 10.44335938 C12.22230469 10.48267578 13.15945313 10.52199219 14.125 10.5625 C15.54232422 10.62727539 15.54232422 10.62727539 16.98828125 10.69335938 C19.32537092 10.79959072 21.6625683 10.90163176 24 11 C24.33 10.34 24.66 9.68 25 9 C25 9.99 25 10.98 25 12 C15.43 12 5.86 12 -4 12 C-1 2 -1 2 0 0 Z " fill="#35BEB3" transform="translate(1278,1050)"/>
<path d="M0 0 C9.70074425 -0.65767758 18.10416023 2.34282143 27 6 C27 6.33 27 6.66 27 7 C24.36 7.33 21.72 7.66 19 8 C19 7.01 19 6.02 19 5 C18.195625 5.020625 17.39125 5.04125 16.5625 5.0625 C14 5 14 5 13 4 C11.56565414 3.84289112 10.12702756 3.72395279 8.6875 3.625 C4.96778998 3.26369059 2.72836252 2.72836252 0 0 Z " fill="#38BB91" transform="translate(434,1022)"/>
<path d="M0 0 C-3.39233141 1.13077714 -5.54366306 0.70640463 -9 0 C-19.43117637 -0.99112423 -27.92881536 2.09665695 -37 7 C-36.875 5.1875 -36.875 5.1875 -36 3 C-25.47539713 -3.67413841 -11.5688393 -3.75205599 0 0 Z " fill="#40B5A4" transform="translate(1112,966)"/>
<path d="M0 0 C0.33 0 0.66 0 1 0 C1 8.58 1 17.16 1 26 C-3.47851553 25.10429689 -4.77175056 24.74999027 -8 22 C-5 20 -5 20 -1 20 C-0.67 13.4 -0.34 6.8 0 0 Z " fill="#50BA94" transform="translate(531,940)"/>
<path d="M0 0 C5.77807024 -0.2358396 10.51324804 0.13216954 16 2 C16 2.66 16 3.32 16 4 C16.53625 4.12375 17.0725 4.2475 17.625 4.375 C25.65957447 6.4893617 25.65957447 6.4893617 28 10 C27.625 13.6875 27.625 13.6875 27 17 C26.67 17 26.34 17 26 17 C26 14.69 26 12.38 26 10 C25.21625 9.773125 24.4325 9.54625 23.625 9.3125 C20.60833565 8.22025946 18.06243229 7.00380843 15.25 5.5 C10.28649454 2.94281406 5.5023456 1.78437693 0 1 C0 0.67 0 0.34 0 0 Z " fill="#5FCEAD" transform="translate(472,997)"/>
<path d="M0 0 C1.125 1.6875 1.125 1.6875 1.125 4.6875 C-3.495 4.6875 -8.115 4.6875 -12.875 4.6875 C-12.875 4.0275 -12.875 3.3675 -12.875 2.6875 C-12.215 2.3575 -11.555 2.0275 -10.875 1.6875 C-11.535 1.0275 -12.195 0.3675 -12.875 -0.3125 C-3.57311321 -2.50117925 -3.57311321 -2.50117925 0 0 Z " fill="#7B7C85" transform="translate(1886.875,1900.3125)"/>
<path d="M0 0 C1.18422255 3.44139841 0.80199625 5.50949969 -0.3125 8.9375 C-0.59738281 9.81535156 -0.88226562 10.69320312 -1.17578125 11.59765625 C-2.64970016 15.89367583 -3.94265273 19.56048432 -7 23 C-7.66 23 -8.32 23 -9 23 C-6.54234965 15.08090444 -3.33181427 7.58014704 0 0 Z " fill="#35C5C0" transform="translate(1308,979)"/>
<path d="M0 0 C2.5625 0.1875 2.5625 0.1875 4.5625 2.1875 C4.6875 4.8125 4.6875 4.8125 4.5625 7.1875 C1.6875 7.8125 1.6875 7.8125 -1.4375 8.1875 C-3.4375 6.1875 -3.4375 6.1875 -3.625 3.625 C-3.37291261 0.34786389 -3.27713611 0.25208739 0 0 Z " fill="#13192E" transform="translate(1902.4375,1882.8125)"/>
<path d="M0 0 C0 0.66 0 1.32 0 2 C-2.51943396 2.50812114 -5.04016873 3.00664534 -7.5625 3.5 C-8.26697266 3.64308594 -8.97144531 3.78617188 -9.69726562 3.93359375 C-16.55626995 5.26114297 -22.36378669 5.58974178 -29 3 C-29 2.67 -29 2.34 -29 2 C-28.2886792 1.97494385 -27.5773584 1.9498877 -26.84448242 1.92407227 C-23.62530483 1.80811561 -20.40642015 1.68538755 -17.1875 1.5625 C-16.06794922 1.52318359 -14.94839844 1.48386719 -13.79492188 1.44335938 C-12.72177734 1.40146484 -11.64863281 1.35957031 -10.54296875 1.31640625 C-9.0583313 1.26141968 -9.0583313 1.26141968 -7.54370117 1.20532227 C-4.88381876 0.99062209 -2.65234723 0 0 0 Z " fill="#0C3435" transform="translate(1118,1062)"/>
<path d="M0 0 C1.32 0.33 2.64 0.66 4 1 C2.12762629 1.96345444 0.2519701 2.92053102 -1.625 3.875 C-2.66914062 4.40867187 -3.71328125 4.94234375 -4.7890625 5.4921875 C-12.69714286 9.20571429 -12.69714286 9.20571429 -16.375 8.625 C-16.91125 8.41875 -17.4475 8.2125 -18 8 C-13.48649253 4.47726246 -10.71658336 3.54267333 -5 4 C-5 3.34 -5 2.68 -5 2 C-3.35 2 -1.7 2 0 2 C0 1.34 0 0.68 0 0 Z " fill="#40BFAB" transform="translate(1130,1054)"/>
<path d="M0 0 C0 0.33 0 0.66 0 1 C-1.03898437 1.04898438 -2.07796875 1.09796875 -3.1484375 1.1484375 C-15.90541661 0.89389479 -15.90541661 0.89389479 -27 5 C-29.67058851 5.14115161 -32.32432238 5.04247107 -35 5 C-24.98004347 -1.67997102 -11.49605237 -0.32776496 0 0 Z " fill="#239587" transform="translate(1108,940)"/>
<path d="M0 0 C1.4540625 0.0309375 1.4540625 0.0309375 2.9375 0.0625 C3.5625 1.875 3.5625 1.875 3.9375 4.0625 C2.9475 5.5475 2.9475 5.5475 1.9375 7.0625 C-0.5625 7.375 -0.5625 7.375 -3.0625 7.0625 C-3.7225 6.4025 -4.3825 5.7425 -5.0625 5.0625 C-4.45789299 1.07209375 -4.2025713 0.08576676 0 0 Z " fill="#7F808B" transform="translate(1883.0625,1907.9375)"/>
<path d="M0 0 C0.33 0 0.66 0 1 0 C1 4.29 1 8.58 1 13 C-3.62 13 -8.24 13 -13 13 C-13 12.67 -13 12.34 -13 12 C-11.39125 11.87625 -11.39125 11.87625 -9.75 11.75 C-5.60002567 10.92000513 -4.41527778 10.39927984 -2 7 C-0.72234735 3.36456099 -0.72234735 3.36456099 0 0 Z " fill="#32E6E9" transform="translate(1572,1048)"/>
<path d="M0 0 C0.66 0.33 1.32 0.66 2 1 C2 11.89 2 22.78 2 34 C1.34 34 0.68 34 0 34 C0 23.77 0 13.54 0 3 C-1.65 4.32 -3.3 5.64 -5 7 C-5.66 6.34 -6.32 5.68 -7 5 C-4.69 3.35 -2.38 1.7 0 0 Z " fill="#093328" transform="translate(519,928)"/>
<path d="M0 0 C-2.4993603 0.90679739 -3.65134177 1.1297333 -6.18359375 0.1875 C-6.92738281 -0.204375 -7.67117188 -0.59625 -8.4375 -1 C-12.17730474 -2.78144043 -13.96137812 -3.27535428 -18 -2 C-20.33301986 -1.96175377 -22.66711508 -1.95425716 -25 -2 C-16.31873835 -8.88513855 -8.91325294 -4.36797748 0 0 Z " fill="#0A332D" transform="translate(481,968)"/>
<path d="M0 0 C3.63 0 7.26 0 11 0 C8.0198759 1.9867494 5.57703925 2.90852573 2.1875 4 C1.17042969 4.33 0.15335937 4.66 -0.89453125 5 C-2.43173828 5.495 -2.43173828 5.495 -4 6 C-6.0006912 6.66458947 -8.00089827 7.33064456 -10 8 C-9.5 6.1875 -9.5 6.1875 -8 4 C-5.4136076 2.73847391 -2.74799171 1.84356955 0 1 C0 0.67 0 0.34 0 0 Z " fill="#5BDEB1" transform="translate(483,1032)"/>
<path d="M0 0 C0.66 0.66 1.32 1.32 2 2 C1.236875 1.938125 0.47375 1.87625 -0.3125 1.8125 C-3.03523261 1.68892515 -3.03523261 1.68892515 -4.34375 3.5 C-6.64083461 5.58037851 -8.14490509 5.30604266 -11.1875 5.1875 C-12.53908203 5.14689453 -12.53908203 5.14689453 -13.91796875 5.10546875 C-14.60503906 5.07066406 -15.29210937 5.03585937 -16 5 C-14.6184028 2.2368056 -13.07820391 1.9713942 -10.25 0.8125 C-8.95835937 0.26529297 -8.95835937 0.26529297 -7.640625 -0.29296875 C-4.6337572 -1.09806205 -2.94523164 -0.9466816 0 0 Z " fill="#3ABE93" transform="translate(469,950)"/>
<path d="M0 0 C0 0.66 0 1.32 0 2 C1.32 2.33 2.64 2.66 4 3 C2.948125 3.14695312 2.948125 3.14695312 1.875 3.296875 C-2.95521353 4.05815865 -7.16870445 4.85215595 -11.5 7.1875 C-13.2325 8.0846875 -13.2325 8.0846875 -15 9 C-15.99 8.67 -16.98 8.34 -18 8 C-16.68 7.67 -15.36 7.34 -14 7 C-14 6.34 -14 5.68 -14 5 C-10.77208445 2.8480563 -9.71599191 2.79913557 -6 3 C-5.67 2.34 -5.34 1.68 -5 1 C-3 0 -3 0 0 0 Z " fill="#5BE0B1" transform="translate(467,959)"/>
<path d="M0 0 C0.33 0.99 0.66 1.98 1 3 C5.23623542 2.90653687 9.47190851 2.80046087 13.70751953 2.68261719 C15.1488374 2.64430326 16.59025168 2.60945457 18.03173828 2.578125 C20.10223886 2.53252554 22.17207433 2.47452556 24.2421875 2.4140625 C25.4885498 2.3826416 26.73491211 2.3512207 28.01904297 2.31884766 C31.11541776 2.30317691 31.11541776 2.30317691 33 0 C33.495 1.98 33.495 1.98 34 4 C22.78 4 11.56 4 0 4 C0 2.68 0 1.36 0 0 Z " fill="#062F39" transform="translate(1321,1013)"/>
<path d="M0 0 C6.17666202 0.3167519 10.1764104 3.47439451 15 7 C15.75023437 7.49757813 16.50046875 7.99515625 17.2734375 8.5078125 C17.84320312 9.00023437 18.41296875 9.49265625 19 10 C19 10.99 19 11.98 19 13 C19.99 13.33 20.98 13.66 22 14 C20.35 14 18.7 14 17 14 C16.76925781 13.41476562 16.53851562 12.82953125 16.30078125 12.2265625 C14.66892042 9.4332872 12.85414355 8.19007672 10.1875 6.375 C9.33542969 5.78460937 8.48335937 5.19421875 7.60546875 4.5859375 C5.12322457 3.07500626 2.72647116 1.9887741 0 1 C0 0.67 0 0.34 0 0 Z " fill="#0A3538" transform="translate(1108,967)"/>
<path d="M0 0 C-7.26188217 4.27994988 -14.73359888 8.10837503 -23 10 C-19.4264096 5.64954212 -15.06166115 4.08270712 -10 2 C-9.32839844 1.68546875 -8.65679687 1.3709375 -7.96484375 1.046875 C-3.34001989 -1.11333996 -3.34001989 -1.11333996 0 0 Z " fill="#113C3B" transform="translate(451,956)"/>
<path d="M0 0 C0.66 0.99 1.32 1.98 2 3 C2.33 3 2.66 3 3 3 C3 5.64 3 8.28 3 11 C1.02 10.34 -0.96 9.68 -3 9 C-3.36923077 3.46153846 -3.36923077 3.46153846 -1.5 1.125 C-1.005 0.75375 -0.51 0.3825 0 0 Z M-2 4 C-1.67 4.66 -1.34 5.32 -1 6 C-0.67 5.34 -0.34 4.68 0 4 C-0.66 4 -1.32 4 -2 4 Z " fill="#4FCDA3" transform="translate(500,927)"/>
<path d="M0 0 C0.66 0.33 1.32 0.66 2 1 C0.49135525 4.84018663 -1.52054814 6.80643252 -5 9 C-7.70203116 9.60657842 -10.22143762 9.81162289 -13 10 C-12.67 9.34 -12.34 8.68 -12 8 C-11.01 8.33 -10.02 8.66 -9 9 C-9 8.34 -9 7.68 -9 7 C-7.28515625 5.52734375 -7.28515625 5.52734375 -5.0625 3.9375 C-2.41985962 2.10094469 -2.41985962 2.10094469 0 0 Z " fill="#3FC4B3" transform="translate(1254,1009)"/>
<path d="M0 0 C2 3 2 3 1.609375 5.2265625 C1.32578125 6.01804687 1.0421875 6.80953125 0.75 7.625 C0.47671875 8.42164063 0.2034375 9.21828125 -0.078125 10.0390625 C-1 12 -1 12 -3 13 C-4.0409066 14.64142963 -5.04504326 16.30712215 -6 18 C-6.33 17.34 -6.66 16.68 -7 16 C-5.92664301 13.23325418 -4.79739939 10.56805742 -3.5625 7.875 C-3.22412109 7.12089844 -2.88574219 6.36679687 -2.53710938 5.58984375 C-1.69839399 3.72340669 -0.85008607 1.8612857 0 0 Z " fill="#37C5C0" transform="translate(1298,1003)"/>
<path d="M0 0 C4.13822218 1.62996896 8.22768778 3.36655355 12.3125 5.125 C13.28026367 5.54072266 13.28026367 5.54072266 14.26757812 5.96484375 C15.84529005 6.64267554 17.42267826 7.32126074 19 8 C19 8.33 19 8.66 19 9 C11.51883867 8.71769203 6.34925886 5.81655817 0 2 C0 1.34 0 0.68 0 0 Z " fill="#113C37" transform="translate(481,969)"/>
<path d="M0 0 C2.97202752 2.97202752 4.10156928 6.58867814 5.6875 10.4375 C6.02072266 11.21416016 6.35394531 11.99082031 6.69726562 12.79101562 C7.16229492 13.9134668 7.16229492 13.9134668 7.63671875 15.05859375 C8.06537231 16.08424438 8.06537231 16.08424438 8.50268555 17.13061523 C9 19 9 19 8 22 C7.67 20.68 7.34 19.36 7 18 C6.34 18 5.68 18 5 18 C4.15875684 15.75267898 3.32685168 13.50261215 2.5 11.25 C2.26152344 10.61578125 2.02304688 9.9815625 1.77734375 9.328125 C0.55198242 5.96713393 0 3.63128413 0 0 Z " fill="#44CCCF" transform="translate(1381,1013)"/>
<path d="M0 0 C1.98 0.66 3.96 1.32 6 2 C5.29423828 2.55107422 5.29423828 2.55107422 4.57421875 3.11328125 C2.4209116 5.69404391 2.27424808 7.88422526 1.8125 11.1875 C1.65394531 12.27417969 1.49539063 13.36085938 1.33203125 14.48046875 C1.22246094 15.31191406 1.11289062 16.14335938 1 17 C0.67 17 0.34 17 0 17 C0 11.39 0 5.78 0 0 Z " fill="#0A3C35" transform="translate(407,1002)"/>
<path d="M0 0 C6.96015253 0.7138618 12.8389367 3.89159024 19 7 C19 7.66 19 8.32 19 9 C11.97481339 7.13415567 5.27483763 5.27483763 0 0 Z " fill="#115445" transform="translate(473,952)"/>
<path d="M0 0 C2.64 1.98 5.28 3.96 8 6 C5 7 5 7 3 7 C2.67 9.31 2.34 11.62 2 14 C-0.28062828 10.57905758 -0.21925007 9.31812778 -0.125 5.3125 C-0.10695313 4.31863281 -0.08890625 3.32476563 -0.0703125 2.30078125 C-0.04710937 1.54152344 -0.02390625 0.78226563 0 0 Z " fill="#113E30" transform="translate(532,926)"/>
<path d="M0 0 C-1 3 -1 3 -2.890625 4.16796875 C-10.72189969 7.55201294 -10.72189969 7.55201294 -15 7 C-12.73946101 4.47138427 -10.60099936 3.16143472 -7.5 1.8125 C-6.7265625 1.46832031 -5.953125 1.12414062 -5.15625 0.76953125 C-3 0 -3 0 0 0 Z " fill="#59DBB3" transform="translate(537,994)"/>
<path d="M0 0 C0.33 0 0.66 0 1 0 C1.14973506 9.71614177 0.69613269 19.31629705 0 29 C-0.33 28.01 -0.66 27.02 -1 26 C-1.66 26 -2.32 26 -3 26 C-2.86722656 25.04480469 -2.73445312 24.08960938 -2.59765625 23.10546875 C-1.546958 15.41313049 -0.61166792 7.74242812 0 0 Z " fill="#5FD6AC" transform="translate(531,927)"/>
<path d="M0 0 C0.66 0.33 1.32 0.66 2 1 C-1.38318015 6.6146394 -4.19066623 10.81869817 -10 14 C-10.66 13.67 -11.32 13.34 -12 13 C-11.319375 12.34 -10.63875 11.68 -9.9375 11 C-6.43274653 7.50531766 -3.22778212 3.74869221 0 0 Z " fill="#A1ACA9" transform="translate(676,1006)"/>
<path d="M0 0 C0.66 0.33 1.32 0.66 2 1 C2.625 3.5625 2.625 3.5625 3 6 C-1.455 6.495 -1.455 6.495 -6 7 C-6 6.34 -6 5.68 -6 5 C-5.01 5 -4.02 5 -3 5 C-2.87625 4.360625 -2.7525 3.72125 -2.625 3.0625 C-2.41875 2.381875 -2.2125 1.70125 -2 1 C-1.34 0.67 -0.68 0.34 0 0 Z " fill="#4DC29F" transform="translate(530,1060)"/>
<path d="M0 0 C0.66 0.33 1.32 0.66 2 1 C0.71937515 2.7074998 -0.61767557 4.37373596 -2 6 C-2.66 6 -3.32 6 -4 6 C-4 9.63 -4 13.26 -4 17 C-2.68 17.33 -1.36 17.66 0 18 C-1.65 18 -3.3 18 -5 18 C-5.13526139 15.75165504 -5.23210804 13.50097486 -5.3125 11.25 C-5.39951172 9.37054687 -5.39951172 9.37054687 -5.48828125 7.453125 C-5 4 -5 4 -2.48046875 1.546875 C-1.66191406 1.03640625 -0.84335937 0.5259375 0 0 Z " fill="#114036" transform="translate(439,1004)"/>
<path d="M0 0 C0 0.66 0 1.32 0 2 C-3.40414707 5.1490813 -7.25056283 7.8643018 -12 8 C-12.66 7.34 -13.32 6.68 -14 6 C-12.04414675 4.99515796 -10.08523763 3.99626195 -8.125 3 C-6.48917969 2.1646875 -6.48917969 2.1646875 -4.8203125 1.3125 C-2 0 -2 0 0 0 Z " fill="#36C38D" transform="translate(521,991)"/>
<path d="M0 0 C-0.33 0.99 -0.66 1.98 -1 3 C-3.31 3 -5.62 3 -8 3 C-8 9.27 -8 15.54 -8 22 C-8.33 22 -8.66 22 -9 22 C-9 15.4 -9 8.8 -9 2 C-2 0 -2 0 0 0 Z " fill="#4CBCA1" transform="translate(507,1044)"/>
<path d="M0 0 C0.33 1.32 0.66 2.64 1 4 C0.278125 4.556875 -0.44375 5.11375 -1.1875 5.6875 C-4.0592739 7.95385929 -4.0592739 7.95385929 -6.5625 10.6875 C-8.87825583 12.88449912 -9.90145954 13.65571773 -13 14 C-10.84327206 11.84327206 -8.68391633 9.69181843 -6.5 7.5625 C-4.14842778 5.15213847 -2.05532264 2.66430713 0 0 Z " fill="#7D7D7B" transform="translate(794,1003)"/>
<path d="M0 0 C0.33 0 0.66 0 1 0 C1.07347656 1.25103516 1.07347656 1.25103516 1.1484375 2.52734375 C1.59317268 9.22137501 2.3468204 15.49749359 4 22 C3.01 21.67 2.02 21.34 1 21 C-0.91318843 13.7109102 -1.04819354 7.45067301 0 0 Z " fill="#31A399" transform="translate(1061,998)"/>
<path d="M0 0 C1.8709949 2.80649235 3.23017952 5.49960473 4.625 8.5625 C5.07101562 9.53316406 5.51703125 10.50382813 5.9765625 11.50390625 C7 14 7 14 7 16 C6.01 16 5.02 16 4 16 C3.34 13.03 2.68 10.06 2 7 C1.34 7 0.68 7 0 7 C0 4.69 0 2.38 0 0 Z " fill="#42D0CD" transform="translate(1374,996)"/>
<path d="M0 0 C0.66 0 1.32 0 2 0 C2 1.65 2 3.3 2 5 C2.99 5.33 3.98 5.66 5 6 C3.3125 6.6875 3.3125 6.6875 1 7 C-1.75 5.75 -1.75 5.75 -4 4 C-4 3.01 -4 2.02 -4 1 C-2.68 1.33 -1.36 1.66 0 2 C0 1.34 0 0.68 0 0 Z " fill="#5BD9B3" transform="translate(391,989)"/>
<path d="M0 0 C3 3.75 3 3.75 3 6 C2.1028125 6.309375 2.1028125 6.309375 1.1875 6.625 C-1.81018767 8.50926082 -2.61361776 10.81132084 -4 14 C-4.33 13.34 -4.66 12.68 -5 12 C-4.26821134 9.92803369 -3.44100997 7.8891448 -2.5625 5.875 C-2.08941406 4.77929688 -1.61632813 3.68359375 -1.12890625 2.5546875 C-0.75636719 1.71164062 -0.38382813 0.86859375 0 0 Z " fill="#094B4B" transform="translate(1337,973)"/>
<path d="M0 0 C0.66 0.33 1.32 0.66 2 1 C0.54782324 2.50596108 -0.91192861 4.00462104 -2.375 5.5 C-3.18710938 6.3353125 -3.99921875 7.170625 -4.8359375 8.03125 C-7 10 -7 10 -9 10 C-8.42655063 7.13275314 -8.1385485 6.1385485 -6 4 C-5.01 4 -4.02 4 -3 4 C-2.67 3.01 -2.34 2.02 -2 1 C-1.34 0.67 -0.68 0.34 0 0 Z " fill="#3DC4B0" transform="translate(1143,1044)"/>
<path d="M0 0 C3.72547778 1.24182593 4.23896445 2.87270301 6.01171875 6.2265625 C7.0145936 8.1530357 7.0145936 8.1530357 8.8125 10.1875 C10 12 10 12 9.57421875 14.11328125 C9.38472656 14.73589844 9.19523437 15.35851563 9 16 C7.49445366 13.71180854 5.99542957 11.41978831 4.5 9.125 C4.07074219 8.47402344 3.64148437 7.82304688 3.19921875 7.15234375 C0 2.2265625 0 2.2265625 0 0 Z " fill="#063338" transform="translate(1247,1027)"/>
<path d="M0 0 C0.33 0.99 0.66 1.98 1 3 C-0.2578125 5.0078125 -0.2578125 5.0078125 -2.125 7.125 C-2.72570313 7.82882812 -3.32640625 8.53265625 -3.9453125 9.2578125 C-6.31139318 11.264033 -7.95461799 11.65225742 -11 12 C-10.29875 11.319375 -9.5975 10.63875 -8.875 9.9375 C-5.72065663 6.79219487 -2.86065696 3.4111614 0 0 Z " fill="#08282D" transform="translate(1260,1006)"/>
<path d="M0 0 C0.66 0.33 1.32 0.66 2 1 C-0.97 8.92 -0.97 8.92 -4 17 C-4.33 17 -4.66 17 -5 17 C-4.53444296 10.59859065 -2.85288164 5.73230171 0 0 Z " fill="#3ACABE" transform="translate(1332,981)"/>
<path d="M0 0 C-2.48952921 2.66735273 -4.63408134 4.55746343 -8 6 C-8 5.34 -8 4.68 -8 4 C-9.65 4 -11.3 4 -13 4 C-10.56272708 2.37515139 -8.62713877 1.34310925 -5.9375 0.3125 C-5.24527344 0.04050781 -4.55304688 -0.23148438 -3.83984375 -0.51171875 C-2 -1 -2 -1 0 0 Z " fill="#20AA99" transform="translate(1118,1035)"/>
<path d="M0 0 C0.33 0 0.66 0 1 0 C2.72107623 10.5309417 2.72107623 10.5309417 0.953125 14.1328125 C-0.4375 15.75 -0.4375 15.75 -3 18 C-3.66 17.67 -4.32 17.34 -5 17 C-4.360625 16.236875 -3.72125 15.47375 -3.0625 14.6875 C-0.04364485 10.26055693 -0.18514758 5.20264705 0 0 Z " fill="#36AB9C" transform="translate(1238,979)"/>
<path d="M0 0 C2.07444392 2.07444392 3.00647758 3.73908275 4.25 6.375 C4.62640625 7.14585937 5.0028125 7.91671875 5.390625 8.7109375 C6 11 6 11 5.109375 13.2890625 C4.56023437 14.13597656 4.56023437 14.13597656 4 15 C4 13.68 4 12.36 4 11 C3.34 11 2.68 11 2 11 C2 9.68 2 8.36 2 7 C1.34 7 0.68 7 0 7 C0 4.69 0 2.38 0 0 Z " fill="#39CECE" transform="translate(1364,973)"/>
<path d="M0 0 C4.03520597 1.58962659 8.01811282 3.28232318 12 5 C12 5.33 12 5.66 12 6 C10.56344146 6.08131463 9.1255517 6.13933559 7.6875 6.1875 C6.48673828 6.23970703 6.48673828 6.23970703 5.26171875 6.29296875 C3 6 3 6 1.20703125 4.67578125 C0 3 0 3 0 0 Z " fill="#3BC396" transform="translate(518,974)"/>
<path d="M0 0 C2.44839588 3.67259383 4 6.54648201 4 11 C3.34 11 2.68 11 2 11 C1.67 11.66 1.34 12.32 1 13 C-0.00496852 9.98509443 -0.10335303 7.95818308 -0.0625 4.8125 C-0.05347656 3.91144531 -0.04445313 3.01039062 -0.03515625 2.08203125 C-0.02355469 1.39496094 -0.01195312 0.70789062 0 0 Z " fill="#0A3342" transform="translate(1368,1049)"/>
<path d="M0 0 C0.66 0.66 1.32 1.32 2 2 C-0.475 7.94 -0.475 7.94 -3 14 C-3.33 14 -3.66 14 -4 14 C-3.53328373 8.58609132 -2.75702189 4.79482068 0 0 Z " fill="#39C9BB" transform="translate(1307,1043)"/>
<path d="M0 0 C0.66 0 1.32 0 2 0 C2.05397335 2.4377963 2.09365616 4.87439685 2.125 7.3125 C2.15013672 8.34793945 2.15013672 8.34793945 2.17578125 9.40429688 C2.21217794 13.17135396 2.14378864 14.78431704 0 18 C-0.66 18 -1.32 18 -2 18 C-1.67 16.88625 -1.34 15.7725 -1 14.625 C0.24429211 9.73545777 0.18495088 5.01422385 0 0 Z " fill="#C6C9C6" transform="translate(770,977)"/>
<path d="M0 0 C-3.17744001 1.61130844 -6.38953675 3.13372179 -9.625 4.625 C-10.58664062 5.07101562 -11.54828125 5.51703125 -12.5390625 5.9765625 C-15 7 -15 7 -17 7 C-17 6.34 -17 5.68 -17 5 C-15.75264433 4.3490741 -14.50198168 3.70448331 -13.25 3.0625 C-12.55390625 2.70285156 -11.8578125 2.34320312 -11.140625 1.97265625 C-7.34995505 0.2502533 -4.14794558 -0.11522071 0 0 Z " fill="#0F3737" transform="translate(468,948)"/>
<path d="M0 0 C0.33 0 0.66 0 1 0 C1 3.63 1 7.26 1 11 C2.65 10.67 4.3 10.34 6 10 C6.99 10.99 7.98 11.98 9 13 C6.03 13 3.06 13 0 13 C0 8.71 0 4.42 0 0 Z " fill="#30E3E7" transform="translate(1548,1048)"/>
<path d="M0 0 C-3.64859761 3.04049801 -7.7444533 4.96518762 -12 7 C-11.671875 5.109375 -11.671875 5.109375 -11 3 C-7.25241255 0.61517162 -4.43651689 -0.39145737 0 0 Z " fill="#43C2AD" transform="translate(1087,966)"/>
<path d="M0 0 C1.95979427 0.28168297 3.91782378 0.57566717 5.875 0.875 C7.51082031 1.11863281 7.51082031 1.11863281 9.1796875 1.3671875 C12 2 12 2 14 4 C11.36 4.33 8.72 4.66 6 5 C6 4.01 6 3.02 6 2 C4.35 2 2.7 2 1 2 C0.67 1.34 0.34 0.68 0 0 Z " fill="#3CCB9B" transform="translate(447,1025)"/>
<path d="M0 0 C5.77807024 -0.2358396 10.51324804 0.13216954 16 2 C15.67 2.99 15.34 3.98 15 5 C14.41992188 4.79503906 13.83984375 4.59007812 13.2421875 4.37890625 C8.8378016 2.85990187 4.64322223 1.5952849 0 1 C0 0.67 0 0.34 0 0 Z " fill="#54C5A4" transform="translate(472,997)"/>
<path d="M0 0 C1.26237731 3.78713193 0.67558873 6.25651933 0.0625 10.1875 C-0.22947266 12.09595703 -0.22947266 12.09595703 -0.52734375 14.04296875 C-0.68332031 15.01878906 -0.83929687 15.99460937 -1 17 C-1.33 17 -1.66 17 -2 17 C-2.33 12.38 -2.66 7.76 -3 3 C-2.01 2.67 -1.02 2.34 0 2 C0 1.34 0 0.68 0 0 Z " fill="#3EC3B2" transform="translate(1062,989)"/>
<path d="M0 0 C0 0.66 0 1.32 0 2 C-0.66 2 -1.32 2 -2 2 C-2.33 3.65 -2.66 5.3 -3 7 C-5.475 6.01 -5.475 6.01 -8 5 C-8 4.34 -8 3.68 -8 3 C-2.25 0 -2.25 0 0 0 Z " fill="#0C4E3F" transform="translate(417,985)"/>
<path d="M0 0 C0.66 0 1.32 0 2 0 C2 0.99 2 1.98 2 3 C-0.91708924 4.98362069 -2.12380904 4.9876191 -5.75 4.625 C-6.8225 4.41875 -7.895 4.2125 -9 4 C-9 3.34 -9 2.68 -9 2 C-6.03 2 -3.06 2 0 2 C0 1.34 0 0.68 0 0 Z " fill="#50D2AD" transform="translate(471,1038)"/>
<path d="M0 0 C-4.93387858 2.25861997 -9.80355921 4.40109514 -15 6 C-12.87748883 3.69895986 -10.84451444 2.18105541 -8.0625 0.75 C-7.39347656 0.39421875 -6.72445313 0.0384375 -6.03515625 -0.328125 C-3.61730731 -1.12634 -2.36988243 -0.82707306 0 0 Z " fill="#0F3F36" transform="translate(412,975)"/>
<path d="M0 0 C1.65 0 3.3 0 5 0 C5 0.99 5 1.98 5 3 C7.31 3 9.62 3 12 3 C12 3.33 12 3.66 12 4 C6.06 4.495 6.06 4.495 0 5 C0 4.34 0 3.68 0 3 C0.66 2.67 1.32 2.34 2 2 C1.34 1.34 0.68 0.68 0 0 Z " fill="#676873" transform="translate(1874,1900)"/>
<path d="M0 0 C0.33 0 0.66 0 1 0 C1 1.98 1 3.96 1 6 C1.99 6 2.98 6 4 6 C4 6.99 4 7.98 4 9 C7.465 8.505 7.465 8.505 11 8 C9 10 9 10 6.0625 10.3125 C3 10 3 10 1.125 8.9375 C-0.58196395 5.99772876 -0.18799766 3.32129197 0 0 Z " fill="#5FC8A9" transform="translate(422,1058)"/>
<path d="M0 0 C0 0.99 0 1.98 0 3 C-4.43076923 5.09230769 -4.43076923 5.09230769 -7.3125 4.625 C-7.869375 4.41875 -8.42625 4.2125 -9 4 C-3.375 0 -3.375 0 0 0 Z " fill="#3FCAB4" transform="translate(1121,1058)"/>
<path d="M0 0 C1.36092905 3.09302057 0.89080437 4.35791902 -0.125 7.6875 C-2 11 -2 11 -4.6875 11.9375 C-5.450625 11.958125 -6.21375 11.97875 -7 12 C-6.21625 11.13375 -5.4325 10.2675 -4.625 9.375 C-2.16613272 6.44943553 -0.97549896 3.72463238 0 0 Z " fill="#D6D8CB" transform="translate(654,989)"/>
<path d="M0 0 C1.32 0.33 2.64 0.66 4 1 C4.66 4.63 5.32 8.26 6 12 C2.89083741 7.85444988 1.68437364 4.81249612 0 0 Z " fill="#062C33" transform="translate(1364,972)"/>
<path d="M0 0 C-3.69172595 3.53790403 -7.09390595 3.59115883 -12 4 C-8.66437635 0.13769893 -4.98576775 -1.84658065 0 0 Z " fill="#30AC86" transform="translate(442,962)"/>
<path d="M0 0 C0.33 0.66 0.66 1.32 1 2 C3.32156597 2.40729228 5.6568787 2.74438677 8 3 C8 5.31 8 7.62 8 10 C6.25372522 7.38058783 5.61277612 5.96175123 5 3 C3.02 3 1.04 3 -1 3 C-0.67 2.01 -0.34 1.02 0 0 Z " fill="#36D7D2" transform="translate(1360,1037)"/>
<path d="M0 0 C-3.0684847 2.97550031 -4.46236331 3.96474513 -8.8125 4.25 C-9.864375 4.1675 -10.91625 4.085 -12 4 C-7.96889361 0.80291562 -5.14313574 -0.13900367 0 0 Z " fill="#13473B" transform="translate(468,962)"/>
<path d="M0 0 C0.66 0 1.32 0 2 0 C2.33 0.66 2.66 1.32 3 2 C4.32 2 5.64 2 7 2 C7 3.98 7 5.96 7 8 C5.8274869 7.04882866 4.66212985 6.08882991 3.5 5.125 C2.8503125 4.59132813 2.200625 4.05765625 1.53125 3.5078125 C1.0259375 3.01023437 0.520625 2.51265625 0 2 C0 1.34 0 0.68 0 0 Z " fill="#3FB8B1" transform="translate(1046,1039)"/>
<path d="M0 0 C0.75 1.625 0.75 1.625 1 4 C-0.75 7.25 -0.75 7.25 -3 10 C-3.99 10 -4.98 10 -6 10 C-4.69063102 7.07909997 -3.24380538 5.24380538 -1 3 C-0.67 2.01 -0.34 1.02 0 0 Z " fill="#35C5B7" transform="translate(1262,998)"/>
<path d="M0 0 C0.66 0.33 1.32 0.66 2 1 C1.67 2.98 1.34 4.96 1 7 C0.67 5.68 0.34 4.36 0 3 C-1.65 4.32 -3.3 5.64 -5 7 C-5.66 6.34 -6.32 5.68 -7 5 C-4.69 3.35 -2.38 1.7 0 0 Z " fill="#0C3F2B" transform="translate(519,928)"/>
<path d="M0 0 C0.66 0.33 1.32 0.66 2 1 C1.34 1.66 0.68 2.32 0 3 C0.32326553 6.59679066 0.32326553 6.59679066 1 10 C-0.32 9.34 -1.64 8.68 -3 8 C-3.36923077 3.44615385 -3.36923077 3.44615385 -1.5 1.1875 C-1.005 0.795625 -0.51 0.40375 0 0 Z " fill="#68CAB2" transform="translate(394,1020)"/>
<path d="M0 0 C0.86625 0.3403125 0.86625 0.3403125 1.75 0.6875 C1.13125 0.749375 0.5125 0.81125 -0.125 0.875 C-2.52761141 1.516419 -2.52761141 1.516419 -3.5 4.25 C-3.7475 5.054375 -3.995 5.85875 -4.25 6.6875 C-4.91 6.3575 -5.57 6.0275 -6.25 5.6875 C-6.25 4.6975 -6.25 3.7075 -6.25 2.6875 C-4.08146295 0.51896295 -3.10906228 -0.43181421 0 0 Z " fill="#363F48" transform="translate(781.25,1017.3125)"/>
<path d="M0 0 C0.99 0 1.98 0 3 0 C5.25 2.75 5.25 2.75 7 6 C6.67 7.32 6.34 8.64 6 10 C4.02 6.7 2.04 3.4 0 0 Z " fill="#2F3437" transform="translate(794,1051)"/>
<path d="M0 0 C1.32 0 2.64 0 4 0 C5.79682816 3.80504787 6.07349791 4.70600835 5 9 C3.35 6.03 1.7 3.06 0 0 Z " fill="#32B2AC" transform="translate(1214,1025)"/>
<path d="M0 0 C3.67230705 3.07999946 4.56802365 5.2482602 5 10 C4.01 9.67 3.02 9.34 2 9 C2 7.68 2 6.36 2 5 C1.34 4.67 0.68 4.34 0 4 C0 2.68 0 1.36 0 0 Z " fill="#3DB895" transform="translate(407,1019)"/>
<path d="M0 0 C0.99 0 1.98 0 3 0 C3 0.66 3 1.32 3 2 C2.34 2 1.68 2 1 2 C0.731875 2.61875 0.46375 3.2375 0.1875 3.875 C-1 6 -1 6 -4 8 C-4 6.68 -4 5.36 -4 4 C-2.68 3.67 -1.36 3.34 0 3 C0 2.01 0 1.02 0 0 Z " fill="#BAC1BC" transform="translate(1016,1006)"/>
<path d="M0 0 C0.66 0.33 1.32 0.66 2 1 C-1.01887244 4.48331435 -3.56909529 5.79157144 -8 7 C-8 6.34 -8 5.68 -8 5 C-7.01 5 -6.02 5 -5 5 C-5 4.34 -5 3.68 -5 3 C-2.625 1.3125 -2.625 1.3125 0 0 Z " fill="#31383A" transform="translate(649,996)"/>
<path d="M0 0 C-0.33 0.66 -0.66 1.32 -1 2 C-1.66 2 -2.32 2 -3 2 C-3 2.66 -3 3.32 -3 4 C-4.32 3.67 -5.64 3.34 -7 3 C-7.33 3.66 -7.66 4.32 -8 5 C-8 3.68 -8 2.36 -8 1 C-2.25 -1.125 -2.25 -1.125 0 0 Z " fill="#4ECEA5" transform="translate(394,987)"/>
<path d="M0 0 C-0.33 1.32 -0.66 2.64 -1 4 C-3.31 4 -5.62 4 -8 4 C-2.7826087 0 -2.7826087 0 0 0 Z " fill="#113E33" transform="translate(444,972)"/>
<path d="M0 0 C0 0.66 0 1.32 0 2 C-2.31 3.32 -4.62 4.64 -7 6 C-7.33 5.01 -7.66 4.02 -8 3 C-2.25 0 -2.25 0 0 0 Z " fill="#3CB88C" transform="translate(422,970)"/>
<path d="M0 0 C-0.33 1.32 -0.66 2.64 -1 4 C-3.31 4 -5.62 4 -8 4 C-2.7826087 0 -2.7826087 0 0 0 Z " fill="#154739" transform="translate(456,966)"/>
<path d="M0 0 C1.11375 0.598125 2.2275 1.19625 3.375 1.8125 C4.00148438 2.14894531 4.62796875 2.48539063 5.2734375 2.83203125 C7 4 7 4 9 7 C5 7 5 7 2.25 4.625 C0 2 0 2 0 0 Z " fill="#CED8CC" transform="translate(1004,949)"/>
<path d="M0 0 C1.32 0.33 2.64 0.66 4 1 C4.66 3.64 5.32 6.28 6 9 C5.01 9.495 5.01 9.495 4 10 C2.68 6.7 1.36 3.4 0 0 Z " fill="#072D35" transform="translate(1352,944)"/>
<path d="M0 0 C-0.33 0.99 -0.66 1.98 -1 3 C-2.98 3 -4.96 3 -7 3 C-6.67 2.01 -6.34 1.02 -6 0 C-3.42525708 -0.99667468 -2.51072708 -1.25536354 0 0 Z " fill="#6F727C" transform="translate(1907,1891)"/>
<path d="M0 0 C0 0.33 0 0.66 0 1 C-3.63 1 -7.26 1 -11 1 C-11 0.67 -11 0.34 -11 0 C-6.53464227 -1.86921951 -4.33629181 -2.2956839 0 0 Z " fill="#2BD2C7" transform="translate(1302,1060)"/>
<path d="M0 0 C3.3 0 6.6 0 10 0 C8.515 1.485 8.515 1.485 7 3 C3.875 2.8125 3.875 2.8125 1 2 C0.67 1.34 0.34 0.68 0 0 Z " fill="#154239" transform="translate(461,1028)"/>
<path d="M0 0 C0 0.99 0 1.98 0 3 C-3.80504787 4.79682816 -4.70600835 5.07349791 -9 4 C-6.03 2.68 -3.06 1.36 0 0 Z " fill="#4E565D" transform="translate(668,1018)"/>
<path d="M0 0 C0.66 0.33 1.32 0.66 2 1 C1.34 2.32 0.68 3.64 0 5 C-1.32 5 -2.64 5 -4 5 C-2.68 3.35 -1.36 1.7 0 0 Z " fill="#3ACABC" transform="translate(1254,1009)"/>
<path d="M0 0 C0.66 0 1.32 0 2 0 C2 0.99 2 1.98 2 3 C2.99 2.67 3.98 2.34 5 2 C5 3.32 5 4.64 5 6 C3.68 5.67 2.36 5.34 1 5 C0.67 3.35 0.34 1.7 0 0 Z " fill="#32D3D3" transform="translate(1344,987)"/>
<path d="M0 0 C0.66 0 1.32 0 2 0 C2 0.99 2 1.98 2 3 C2.66 3 3.32 3 4 3 C4 5.31 4 7.62 4 10 C1.81024227 6.71536341 1.00193437 3.79303725 0 0 Z " fill="#38CECF" transform="translate(1340,977)"/>
<path d="M0 0 C0.721875 0.144375 1.44375 0.28875 2.1875 0.4375 C3.5796875 0.7159375 3.5796875 0.7159375 5 1 C6.66666667 1.33333333 8.33333333 1.66666667 10 2 C10 2.99 10 3.98 10 5 C6.08788267 3.84414715 3.1254959 2.64465038 0 0 Z " fill="#44BD9B" transform="translate(497,976)"/>
<path d="M0 0 C0.94875 0.04125 1.8975 0.0825 2.875 0.125 C2.276875 0.3725 1.67875 0.62 1.0625 0.875 C-1.41147521 2.28870012 -2.55870255 3.77555383 -4.125 6.125 C-4.75 4.25 -4.75 4.25 -5.125 2.125 C-3.125 0.125 -3.125 0.125 0 0 Z " fill="#6D707C" transform="translate(1883.125,1907.875)"/>
<path d="M0 0 C0.66 0 1.32 0 2 0 C1.71125 0.53625 1.4225 1.0725 1.125 1.625 C-0.16711808 4.35280484 -1.08558592 7.12612718 -2 10 C-2.33 10 -2.66 10 -3 10 C-3.2295711 6.63295715 -3.33943529 4.58629732 -1.625 1.625 C-1.08875 1.08875 -0.5525 0.5525 0 0 Z " fill="#1F2534" transform="translate(1874,1905)"/>
<path d="M0 0 C-0.33 0.99 -0.66 1.98 -1 3 C-3.64 3.33 -6.28 3.66 -9 4 C-3.7826087 0 -3.7826087 0 0 0 Z " fill="#5BE9BB" transform="translate(537,994)"/>
<path d="M0 0 C0 0.99 0 1.98 0 3 C-1.96466413 4.06775224 -3.96855359 5.06553465 -6 6 C-6.66 5.67 -7.32 5.34 -8 5 C-2.25 0 -2.25 0 0 0 Z " fill="#3ED39D" transform="translate(446,959)"/>
<path d="M0 0 C2.46800047 1.15173355 4.04783565 2.04783565 6 4 C5.34 4.66 4.68 5.32 4 6 C3.01 5.67 2.02 5.34 1 5 C0.67 3.35 0.34 1.7 0 0 Z " fill="#40CB9C" transform="translate(476,954)"/>
</svg>
